<?xml version="1.0" standalone="no"?>
<!DOCTYPE svg PUBLIC "-//W3C//DTD SVG 20010904//EN"
 "http://www.w3.org/TR/2001/REC-SVG-20010904/DTD/svg10.dtd">
<svg version="1.0" xmlns="http://www.w3.org/2000/svg"
 width="700.000000pt" height="700.000000pt" viewBox="0 0 700.000000 700.000000"
 preserveAspectRatio="xMidYMid meet">
<metadata>
Created by potrace 1.14, written by Peter Selinger 2001-2017
</metadata>
<g transform="translate(0.000000,700.000000) scale(0.100000,-0.100000)"
fill="#000000" stroke="none">
<path d="M2107 6690 c-15 -12 -31 -38 -37 -58 -6 -24 -10 -268 -10 -674 l0
-638 -22 -4 c-13 -3 -52 -8 -88 -11 -409 -39 -862 -277 -1145 -603 -486 -558
-591 -1339 -270 -1998 262 -538 767 -909 1370 -1006 104 -16 427 -16 530 1
585 94 1073 440 1343 951 118 223 184 454 208 723 l6 77 162 0 162 0 432 -599
432 -599 0 -917 0 -917 34 -34 c45 -45 92 -47 138 -5 l33 29 5 773 5 773 579
-805 c318 -442 591 -816 607 -831 60 -57 150 -26 169 57 14 58 13 6209 0 6257
-22 79 -114 105 -171 49 l-29 -29 0 -1491 0 -1491 -368 0 c-203 0 -464 -3
-580 -7 l-212 -6 0 1462 0 1463 -34 34 c-47 47 -95 47 -142 0 l-34 -34 0
-1461 0 -1461 -378 0 -378 0 -1089 1511 c-599 831 -1098 1517 -1109 1525 -30
21 -89 17 -119 -6z m593 -997 c228 -317 433 -601 455 -631 21 -31 33 -52 25
-47 -8 5 -37 23 -65 41 -185 117 -465 216 -690 244 -49 6 -105 13 -122 16
l-33 5 0 474 c0 261 3 475 8 475 4 0 194 -260 422 -577z m-656 -2391 c-63
-288 -308 -483 -609 -485 -112 -1 -189 15 -283 59 -217 100 -340 290 -359 559
-6 84 -8 92 -39 123 -43 43 -90 44 -136 3 l-33 -30 1 -98 c5 -397 271 -725
656 -809 98 -22 282 -21 373 0 256 61 443 201 554 416 59 116 101 264 101 360
l0 37 137 6 c75 4 415 7 755 7 l620 0 -7 -77 c-35 -391 -194 -733 -469 -1009
-236 -236 -507 -380 -838 -446 -161 -32 -434 -32 -595 0 -433 86 -799 329
-1038 687 -126 188 -202 372 -247 597 -32 162 -32 434 0 596 117 583 524 1048
1082 1231 91 31 269 68 345 73 l40 3 3 -865 c2 -763 1 -874 -14 -938z m459
1772 c549 -111 1021 -535 1197 -1074 30 -91 79 -325 70 -334 -3 -2 -340 -6
-750 -7 l-745 -3 -3 714 c-1 393 0 720 2 726 5 13 108 3 229 -22z m1534 -1236
c60 -84 113 -159 117 -165 5 -10 -13 -13 -82 -13 l-89 0 -12 93 c-6 51 -20
125 -30 165 -11 39 -18 72 -16 72 1 0 52 -69 112 -152z m2510 -893 c2 -280 -1
-893 -5 -1362 l-7 -852 -572 794 -573 794 0 565 0 565 148 4 c81 1 341 3 577
2 l430 0 2 -510z m-1367 88 c0 -244 -4 -413 -9 -408 -10 12 -574 794 -585 813
-6 9 56 12 293 12 l301 0 0 -417z"/>
</g>
</svg>
