<svg width="31" height="36" viewBox="0 0 31 36" fill="none" xmlns="http://www.w3.org/2000/svg">
<path d="M21.831 7.00024C18.831 7.00024 18.831 8.00024 15.831 8.00024C12.831 8.00024 12.831 7.00024 9.83099 7.00024C5.83099 7.00024 0.830994 9.00024 0.830994 16.0002C0.830994 27.0002 6.83099 36.0002 10.831 36.0002C13.831 36.0002 13.831 35.0002 15.831 35.0002C17.831 35.0002 17.831 36.0002 20.831 36.0002C24.831 36.0002 30.831 27.0002 30.831 16.0002C30.831 8.99924 25.831 7.00024 21.831 7.00024Z" fill="#DD2E44"/>
<path d="M16.831 7.00024C16.831 7.00024 19.831 3.00024 24.831 3.00024C28.831 3.00024 30.831 5.00024 30.831 5.00024C30.831 5.00024 26.831 8.00024 23.831 8.00024C20.831 8.00024 16.831 7.00024 16.831 7.00024Z" fill="#77B255"/>
<path d="M15.831 10.0002C15.279 10.0002 14.831 9.55225 14.831 9.00025C14.831 5.55925 16.031 2.38525 18.124 0.29325C18.515 -0.09775 19.147 -0.09775 19.538 0.29325C19.929 0.68425 19.929 1.31725 19.538 1.70725C17.817 3.42725 16.831 6.08525 16.831 9.00025C16.831 9.55225 16.383 10.0002 15.831 10.0002Z" fill="#662113"/>
</svg>
