<svg width="36" height="35" viewBox="0 0 36 35" fill="none" xmlns="http://www.w3.org/2000/svg">
<path d="M18.4275 19.8869C9.05651 19.8869 1.46051 19.6619 1.46051 26.3139C1.46051 32.9629 9.05651 34.4759 18.4275 34.4759C27.7985 34.4759 35.3945 32.9629 35.3945 26.3139C35.3945 19.6629 27.7985 19.8869 18.4275 19.8869Z" fill="#D99E82"/>
<path d="M34.8975 20.392C34.8975 20.392 26.6785 19.408 18.4275 19.366C10.1765 19.408 1.9575 20.392 1.9575 20.392C1.1445 26.866 7.8945 29.533 18.4275 29.533C28.9605 29.533 35.7105 26.866 34.8975 20.392V20.392Z" fill="#662113"/>
<path d="M34.3135 17.804L2.45847 18.45C1.35847 18.45 0.437472 20.679 1.60447 21.262C10.3125 23.97 17.3125 26.71 17.3125 26.71C18.2745 27.242 18.5995 27.244 19.5625 26.713C19.5625 26.713 29.2285 22.845 35.4375 21.22C36.3185 20.99 35.4125 17.804 34.3135 17.804Z" fill="#FFCC4D"/>
<path d="M35.1525 17.888C33.2525 16.137 33.3625 17.069 31.9065 16.658C31.3535 16.502 27.3965 11.387 18.3775 11.387H18.3575C9.33849 11.387 5.38149 16.502 4.82849 16.658C3.37249 17.069 3.48249 16.137 1.58249 17.888C0.71049 18.692 0.47449 19.11 1.39449 19.318C2.78049 19.631 2.65449 20.47 3.64749 20.762C4.84949 21.115 5.34349 20.47 7.28149 20.734C8.93449 20.959 9.04249 23.103 10.7105 23.103C12.3785 23.103 12.3785 22.303 14.0455 22.303C15.7125 22.303 16.6985 24.449 18.3665 24.449C20.0345 24.449 21.0195 22.303 22.6875 22.303C24.3555 22.303 24.3555 23.103 26.0225 23.103C27.6905 23.103 27.7985 20.959 29.4515 20.734C31.3895 20.471 31.8845 21.115 33.0855 20.762C34.0785 20.47 33.9525 19.632 35.3385 19.318C36.2605 19.111 36.0255 18.692 35.1525 17.888V17.888Z" fill="#77B255"/>
<path d="M34.5045 15.996C34.5045 18.98 27.3065 20.389 18.4275 20.389C9.54846 20.389 2.35046 18.98 2.35046 15.996C2.35046 10.593 3.31646 10.593 18.4275 10.593C33.5385 10.593 34.5045 10.594 34.5045 15.996Z" fill="#DD2E44"/>
<path d="M18.4275 0C9.05651 0 1.46051 4.391 1.46051 11.042C1.46051 17.167 9.05651 17.417 18.4275 17.417C27.7985 17.417 35.3945 17.167 35.3945 11.042C35.3945 4.39 27.7985 0 18.4275 0Z" fill="#D99E82"/>
<path d="M11.2115 3.17106C10.7135 2.85206 10.0525 2.99806 9.73449 3.49606C9.41649 3.99406 9.56149 4.65606 10.0595 4.97306C10.5575 5.29206 11.8195 5.53006 12.1385 5.03206C12.4565 4.53406 11.7095 3.48906 11.2115 3.17106V3.17106ZM20.9455 2.13606C20.3835 2.31806 19.3965 3.14206 19.5795 3.70406C19.7625 4.26606 21.0435 4.35206 21.6055 4.17006C22.1675 3.98806 22.4745 3.38406 22.2915 2.82206C22.1095 2.26106 21.5055 1.95306 20.9455 2.13606ZM31.8545 9.17106C31.4025 8.79106 30.2695 9.39606 29.8885 9.84806C29.5085 10.3011 29.5675 10.9751 30.0195 11.3551C30.4715 11.7351 31.1465 11.6761 31.5265 11.2241C31.9075 10.7711 32.3075 9.55106 31.8545 9.17106ZM28.2115 4.17106C27.7135 3.85306 27.0525 3.99906 26.7335 4.49706C26.4155 4.99506 26.5615 5.65606 27.0595 5.97406C27.5575 6.29306 28.8195 6.53106 29.1375 6.03306C29.4565 5.53406 28.7095 4.48906 28.2115 4.17106ZM13.2115 11.1711C12.7135 10.8531 12.0525 10.9991 11.7335 11.4971C11.4155 11.9941 11.5615 12.6561 12.0595 12.9731C12.5575 13.2921 13.8195 13.5311 14.1375 13.0321C14.4565 12.5341 13.7095 11.4891 13.2115 11.1711V11.1711ZM16.2575 6.36306C15.9215 6.84906 15.6375 8.10206 16.1245 8.43806C16.6105 8.77406 17.6815 8.06406 18.0175 7.57806C18.3535 7.09206 18.2305 6.42606 17.7445 6.09006C17.2595 5.75406 16.5925 5.87706 16.2575 6.36306V6.36306ZM24.2115 11.1711C23.7135 10.8531 23.0525 10.9991 22.7335 11.4971C22.4155 11.9941 22.5615 12.6571 23.0595 12.9731C23.5575 13.2921 24.8195 13.5311 25.1375 13.0321C25.4565 12.5341 24.7095 11.4891 24.2115 11.1711V11.1711ZM5.37549 7.28406C4.98149 7.72506 4.54249 8.93206 4.98349 9.32606C5.42249 9.72006 6.57449 9.15206 6.96849 8.71106C7.36349 8.27106 7.32549 7.59506 6.88549 7.20006C6.44649 6.80606 5.76949 6.84406 5.37549 7.28406V7.28406Z" fill="#FFE8B6"/>
</svg>
