<svg width="37" height="35" viewBox="0 0 37 35" fill="none" xmlns="http://www.w3.org/2000/svg">
<path d="M26.9944 12.6716L26.8204 12.4976L17.6384 3.36157C20.4524 6.64157 19.8014 11.1466 16.0224 13.6736C12.3504 16.1286 7.02636 15.8476 3.63336 13.1646L8.86036 18.4856L11.3254 20.9506C12.5434 22.1686 14.4504 22.7016 15.8564 22.6636C16.9154 22.6356 17.6904 22.2846 17.6644 21.6546C17.6504 21.2926 17.8534 21.0026 18.1914 20.7736C19.2774 20.0366 21.7964 19.9456 23.2994 20.2466C23.7914 20.3446 24.2564 20.3276 24.6944 20.2336C26.0274 19.9476 27.0874 18.8816 27.7284 17.6326C28.3764 16.3686 28.5954 14.9286 28.2404 13.9436L28.2304 13.9086L26.9944 12.6716V12.6716Z" fill="#FFCC4D"/>
<path d="M19.7064 16.6535C19.3174 16.2645 18.5884 16.1655 18.0774 16.4335C17.5664 16.7005 17.4684 17.2325 17.8574 17.6225C18.2464 18.0125 18.9754 18.1105 19.4864 17.8425C19.9974 17.5745 20.0964 17.0425 19.7064 16.6535Z" fill="#FFAC33"/>
<path d="M25.1493 15.4646C24.7603 15.0756 24.2483 15.1936 24.0043 15.7286C23.7613 16.2636 23.8793 17.0126 24.2683 17.4016C24.6573 17.7906 25.1693 17.6726 25.4133 17.1376C25.6563 16.6026 25.5383 15.8546 25.1493 15.4646V15.4646Z" fill="#D99E82"/>
<path d="M22.5954 11.0906C22.3274 11.6016 21.7964 11.6996 21.4064 11.3106C21.0164 10.9216 20.9184 10.1926 21.1864 9.68162C21.4534 9.17062 21.9854 9.07262 22.3754 9.46162C22.7654 9.85062 22.8634 10.5796 22.5954 11.0906Z" fill="#FFAC33"/>
<path d="M13.4394 20.2465C12.8554 20.4415 12.0674 20.2835 11.6784 19.8945C11.2894 19.5055 11.4464 19.0325 12.0304 18.8375C12.6144 18.6425 13.4024 18.8005 13.7914 19.1895C14.1804 19.5795 14.0234 20.0525 13.4394 20.2465Z" fill="#D99E82"/>
<path d="M24.6954 20.2336C24.2574 20.3276 23.7924 20.3456 23.3004 20.2466C21.7974 19.9456 19.2794 20.0376 18.1924 20.7736L31.2144 33.7956C33.7004 32.9476 35.1444 30.7596 35.1764 30.7136L24.6954 20.2336ZM34.5524 20.2646L34.5704 20.2466L31.0484 16.7246C30.0484 14.6116 31.8234 13.2916 31.1194 12.5876C30.4434 11.9116 28.4044 12.6146 26.9954 12.6716L28.2314 13.9076C28.6044 14.8936 28.3854 16.3546 27.7304 17.6326L36.6584 26.5606C36.9194 23.3236 35.2904 21.0946 34.5524 20.2646V20.2646Z" fill="#BDBDBD"/>
<path d="M15.8563 22.6644C14.4513 22.7014 12.5433 22.1684 11.3253 20.9514L9.56435 19.1904C9.38835 19.7184 9.56435 20.5994 9.91635 20.9514C10.6203 21.6554 9.21135 24.4724 12.0283 25.8814C13.9183 26.8264 16.2543 25.8814 17.6633 27.2904C17.6633 27.2904 22.1463 31.7964 22.5943 32.2214C23.0423 32.6464 24.9283 34.0844 27.4943 34.3044L15.8563 22.6644V22.6644Z" fill="#808285"/>
<path d="M18.1924 20.7734C17.8544 21.0024 17.6504 21.2924 17.6654 21.6544C17.6904 22.2844 16.9154 22.6354 15.8574 22.6634L27.4964 34.3024C29.6594 34.4684 31.1424 33.8214 31.2144 33.7944L18.1924 20.7734Z" fill="#A6A6A6"/>
<path d="M27.7294 17.6326C27.0884 18.8816 26.0284 19.9476 24.6954 20.2336L35.1764 30.7146C36.5234 28.8136 36.6494 26.6586 36.6574 26.5606L27.7294 17.6326V17.6326Z" fill="#D8D8D8"/>
<path d="M3.84735 6.58945C3.91635 6.28545 4.05235 5.98445 4.28235 5.75445C4.92835 5.10845 5.75635 4.47245 6.85935 4.44645C7.57035 4.42945 8.39435 4.53745 9.36035 5.12145L16.4294 5.18045C16.1854 4.77445 15.8884 4.38245 15.5224 4.01645C12.9944 1.48845 8.48735 1.08145 5.45735 3.10845C4.02635 4.06445 3.18935 5.39245 2.96035 6.79345C3.21635 6.58645 3.54735 6.50945 3.84735 6.58945V6.58945ZM16.4394 5.19845L16.4304 5.18245H16.4264L16.4394 5.19845ZM3.65135 9.02445C3.62835 9.00545 3.60035 8.99745 3.57835 8.97545C3.44735 8.84445 3.37635 8.68145 3.33435 8.51345C3.19735 8.47845 3.07035 8.41245 2.95535 8.32445C2.87635 7.82545 2.87935 7.31745 2.95535 6.82345C2.78635 7.89845 2.98135 9.01345 3.55335 10.0384L3.55235 10.0364C3.47135 9.69945 3.49535 9.34245 3.65135 9.02445V9.02445Z" fill="#FFAC33"/>
<path d="M2.95738 6.79543L2.95538 6.82343L2.96038 6.79443L2.95738 6.79543Z" fill="#C1694F"/>
<path d="M17.6384 3.36155C17.5014 3.20155 17.3644 3.04155 17.2104 2.88755C13.9034 -0.418451 7.99036 -0.98245 4.04736 1.69855C0.212363 4.30655 -0.350637 9.30655 2.85836 12.4835C3.10236 12.7255 3.36236 12.9505 3.63236 13.1635C7.02536 15.8465 12.3504 16.1275 16.0214 13.6725C19.8014 11.1465 20.4524 6.64155 17.6384 3.36155V3.36155ZM16.4304 5.18255L16.4394 5.19855C17.8674 7.59555 17.1984 10.5355 14.6134 12.2645C11.5834 14.2915 7.07636 13.8845 4.54736 11.3555C4.13536 10.9435 3.81036 10.4995 3.55236 10.0385C2.98036 9.01355 2.78536 7.89855 2.95436 6.82355L2.95636 6.79555L2.95936 6.79355C3.18936 5.39255 4.02636 4.06455 5.45736 3.10855C8.48836 1.08255 12.9944 1.48855 15.5234 4.01755C15.8894 4.38355 16.1864 4.77555 16.4304 5.18155" fill="#FFE8B6"/>
<path d="M14.6134 12.2645C17.1984 10.5355 17.8674 7.59546 16.4394 5.19846L16.4264 5.18246H16.4304L16.4294 5.18046L9.36037 5.12146C8.39337 4.53746 7.56937 4.42946 6.85937 4.44646C5.75637 4.47246 4.92837 5.10846 4.28237 5.75446C4.05237 5.98446 3.91637 6.28546 3.84737 6.58946C3.54737 6.50946 3.21637 6.58646 2.95937 6.79346L2.95437 6.82246C2.87837 7.31646 2.87537 7.82446 2.95437 8.32346C3.07037 8.41246 3.19737 8.47846 3.33437 8.51346C3.37737 8.68146 3.44737 8.84446 3.57837 8.97546C3.60037 8.99746 3.62837 9.00546 3.65137 9.02446C3.49537 9.34246 3.47137 9.69946 3.55237 10.0365L3.55337 10.0385C3.81037 10.4995 4.13637 10.9445 4.54837 11.3555C7.07637 13.8845 11.5834 14.2915 14.6134 12.2645Z" fill="#C1694F"/>
<path d="M9.36038 5.33258L16.6394 5.60358C16.5154 5.32758 16.3584 5.04958 16.1554 4.76958C13.5554 2.84758 9.60838 2.68258 6.86538 4.51658L6.85938 4.55158C7.56937 4.53558 8.39338 4.74858 9.36038 5.33258Z" fill="#F4900C"/>
<path d="M6.39535 8.56451C6.94543 8.56451 7.39135 8.11859 7.39135 7.56851C7.39135 7.01843 6.94543 6.57251 6.39535 6.57251C5.84528 6.57251 5.39935 7.01843 5.39935 7.56851C5.39935 8.11859 5.84528 8.56451 6.39535 8.56451Z" fill="#D99E82"/>
<path d="M7.80436 11.1755C8.62948 11.1755 9.29836 10.5066 9.29836 9.6815C9.29836 8.85639 8.62948 8.1875 7.80436 8.1875C6.97925 8.1875 6.31036 8.85639 6.31036 9.6815C6.31036 10.5066 6.97925 11.1755 7.80436 11.1755Z" fill="#D99E82"/>
<path d="M10.6214 11.3816C11.1714 11.3816 11.6174 10.9357 11.6174 10.3856C11.6174 9.83557 11.1714 9.38965 10.6214 9.38965C10.0713 9.38965 9.62537 9.83557 9.62537 10.3856C9.62537 10.9357 10.0713 11.3816 10.6214 11.3816Z" fill="#D99E82"/>
<path d="M4.98738 7.36246C5.26242 7.36246 5.48538 7.13949 5.48538 6.86446C5.48538 6.58942 5.26242 6.36646 4.98738 6.36646C4.71234 6.36646 4.48938 6.58942 4.48938 6.86446C4.48938 7.13949 4.71234 7.36246 4.98738 7.36246Z" fill="#D99E82"/>
<path d="M8.50839 13.4944C9.05847 13.4944 9.50439 13.0485 9.50439 12.4984C9.50439 11.9484 9.05847 11.5024 8.50839 11.5024C7.95831 11.5024 7.51239 11.9484 7.51239 12.4984C7.51239 13.0485 7.95831 13.4944 8.50839 13.4944Z" fill="#D99E82"/>
<path d="M7.10038 6.24459C7.9255 6.24459 8.59438 5.57571 8.59438 4.75059C8.59438 3.92548 7.9255 3.25659 7.10038 3.25659C6.27527 3.25659 5.60638 3.92548 5.60638 4.75059C5.60638 5.57571 6.27527 6.24459 7.10038 6.24459Z" fill="#FFD983"/>
<path d="M11.3264 12.4985C10.9374 12.1095 10.3074 12.1095 9.91739 12.4985C9.63639 12.7795 9.56639 13.1835 9.68939 13.5335C10.3184 13.5685 10.9514 13.5385 11.5724 13.4365C11.6524 13.1095 11.5814 12.7545 11.3264 12.4985V12.4985Z" fill="#D99E82"/>
<path d="M16.9614 6.86446C16.5724 6.47546 15.9414 6.47546 15.5524 6.86446C15.4234 6.99346 15.3414 7.14946 15.2974 7.31446C15.1334 7.35746 14.9764 7.44045 14.8474 7.56845C15.2364 7.17945 15.2374 6.54745 14.8484 6.15845C15.2334 5.77345 15.2414 5.14546 14.8574 4.76046L14.8414 4.74446C14.4554 4.35846 13.8264 4.36246 13.4394 4.74946C13.3084 4.61846 13.1464 4.54846 12.9784 4.50546C12.9354 4.33746 12.8654 4.17646 12.7334 4.04546C12.5014 3.81346 12.1834 3.72346 11.8824 3.76746C11.8244 3.35446 11.6434 2.95446 11.3254 2.63646C10.5484 1.85946 9.28836 1.85946 8.50936 2.63846C7.73036 3.41746 7.73036 4.67746 8.50836 5.45546C9.04036 5.98646 9.79336 6.14646 10.4674 5.95246C10.5104 6.02546 10.5594 6.09646 10.6214 6.15946C10.2324 6.54846 10.2324 7.17945 10.6214 7.56845C10.8474 7.79445 11.1534 7.88446 11.4474 7.84846C11.5134 8.03546 11.6164 8.21146 11.7664 8.36046C12.1624 8.75646 12.7404 8.85745 13.2304 8.66745C13.2784 8.77945 13.3474 8.88546 13.4384 8.97746C13.0494 9.36646 13.0494 9.99746 13.4384 10.3865C13.8274 10.7755 14.4574 10.7755 14.8474 10.3865C14.9224 10.4615 15.0074 10.5165 15.0964 10.5625L15.1264 10.5785C15.4964 10.7535 15.9494 10.6925 16.2554 10.3865C16.6444 9.99746 16.6444 9.36646 16.2554 8.97746C16.3494 8.88346 16.4184 8.77446 16.4664 8.65946C16.4674 8.61946 16.4654 8.58045 16.4654 8.54045C16.6464 8.50145 16.8184 8.41346 16.9594 8.27246C17.3504 7.88346 17.3504 7.25246 16.9614 6.86446Z" fill="#77B255"/>
<path d="M15.5524 8.06656C15.8274 8.06656 16.0504 7.84359 16.0504 7.56856C16.0504 7.29352 15.8274 7.07056 15.5524 7.07056C15.2773 7.07056 15.0544 7.29352 15.0544 7.56856C15.0544 7.84359 15.2773 8.06656 15.5524 8.06656Z" fill="#A6D388"/>
<path d="M13.4394 12.7906C13.9894 12.7906 14.4354 12.3447 14.4354 11.7946C14.4354 11.2445 13.9894 10.7986 13.4394 10.7986C12.8893 10.7986 12.4434 11.2445 12.4434 11.7946C12.4434 12.3447 12.8893 12.7906 13.4394 12.7906Z" fill="#FFD983"/>
<path d="M13.0874 8.62463C12.5994 8.13663 11.8614 8.06263 11.2904 8.39063C11.2174 8.22063 11.1144 8.05963 10.9744 7.92063C10.8354 7.78163 10.6744 7.67763 10.5044 7.60463C10.8324 7.03363 10.7584 6.29563 10.2704 5.80763C9.68636 5.22363 8.74136 5.22363 8.15736 5.80763C7.57336 6.39163 7.57336 7.33663 8.15736 7.92063C8.29636 8.05963 8.45736 8.16363 8.62736 8.23663C8.29936 8.80763 8.37336 9.54563 8.86136 10.0336C9.34936 10.5216 10.0874 10.5956 10.6584 10.2676C10.7314 10.4376 10.8344 10.5986 10.9744 10.7376C11.5584 11.3216 12.5034 11.3216 13.0874 10.7376C13.6714 10.1546 13.6714 9.20863 13.0874 8.62463V8.62463Z" fill="#FFD983"/>
<path d="M11.1503 10.7505C11.8379 10.7505 12.3953 10.1931 12.3953 9.5055C12.3953 8.8179 11.8379 8.2605 11.1503 8.2605C10.4627 8.2605 9.90533 8.8179 9.90533 9.5055C9.90533 10.1931 10.4627 10.7505 11.1503 10.7505Z" fill="#FFE8B6"/>
<path d="M9.74138 8.13951C10.1539 8.13951 10.4884 7.80506 10.4884 7.39251C10.4884 6.97995 10.1539 6.64551 9.74138 6.64551C9.32883 6.64551 8.99438 6.97995 8.99438 7.39251C8.99438 7.80506 9.32883 8.13951 9.74138 8.13951Z" fill="#FFE8B6"/>
<path d="M8.33239 6.73057C8.74494 6.73057 9.07939 6.39613 9.07939 5.98357C9.07939 5.57102 8.74494 5.23657 8.33239 5.23657C7.91983 5.23657 7.58539 5.57102 7.58539 5.98357C7.58539 6.39613 7.91983 6.73057 8.33239 6.73057Z" fill="#FFE8B6"/>
<path d="M9.21339 4.54458C9.48843 4.54458 9.71139 4.32162 9.71139 4.04658C9.71139 3.77155 9.48843 3.54858 9.21339 3.54858C8.93836 3.54858 8.71539 3.77155 8.71539 4.04658C8.71539 4.32162 8.93836 4.54458 9.21339 4.54458Z" fill="#A6D388"/>
<path d="M15.5523 6.45147C16.1024 6.45147 16.5483 6.00555 16.5483 5.45547C16.5483 4.9054 16.1024 4.45947 15.5523 4.45947C15.0023 4.45947 14.5563 4.9054 14.5563 5.45547C14.5563 6.00555 15.0023 6.45147 15.5523 6.45147Z" fill="#77B255"/>
<path d="M14.8484 8.56451C15.3984 8.56451 15.8444 8.11859 15.8444 7.56851C15.8444 7.01843 15.3984 6.57251 14.8484 6.57251C14.2983 6.57251 13.8524 7.01843 13.8524 7.56851C13.8524 8.11859 14.2983 8.56451 14.8484 8.56451Z" fill="#A6D388"/>
<path d="M13.7914 5.10361C13.5724 4.88461 13.3034 4.74861 13.0214 4.69361C13.0074 4.45861 12.9144 4.22761 12.7354 4.04761C12.3464 3.65861 11.7164 3.65861 11.3264 4.04761C10.9374 3.65861 10.3074 3.65861 9.91736 4.04761C9.52836 4.43661 9.52836 5.06661 9.91736 5.45661C10.3064 5.84661 10.9364 5.84561 11.3264 5.45661C11.3474 5.47761 11.3724 5.49361 11.3954 5.51261C11.1264 6.06861 11.2164 6.75461 11.6784 7.21761C12.2624 7.80161 13.2074 7.80161 13.7914 7.21761C14.3754 6.63261 14.3754 5.68761 13.7914 5.10361Z" fill="#A6D388"/>
<path d="M11.1504 3.91343C11.5629 3.91343 11.8974 3.57899 11.8974 3.16643C11.8974 2.75388 11.5629 2.41943 11.1504 2.41943C10.7378 2.41943 10.4034 2.75388 10.4034 3.16643C10.4034 3.57899 10.7378 3.91343 11.1504 3.91343Z" fill="#DD2E44"/>
<path d="M15.3763 6.73057C15.7889 6.73057 16.1233 6.39613 16.1233 5.98357C16.1233 5.57102 15.7889 5.23657 15.3763 5.23657C14.9638 5.23657 14.6293 5.57102 14.6293 5.98357C14.6293 6.39613 14.9638 6.73057 15.3763 6.73057Z" fill="#DD2E44"/>
<path d="M14.8484 9.97345C15.3984 9.97345 15.8444 9.52752 15.8444 8.97745C15.8444 8.42737 15.3984 7.98145 14.8484 7.98145C14.2983 7.98145 13.8524 8.42737 13.8524 8.97745C13.8524 9.52752 14.2983 9.97345 14.8484 9.97345Z" fill="#DD2E44"/>
<path d="M14.1434 2.63745C13.7544 2.24845 13.1234 2.24845 12.7344 2.63745C12.3454 3.02645 12.3454 3.65745 12.7344 4.04645C12.3454 4.43545 12.3454 5.06645 12.7344 5.45545C13.1234 5.84445 13.7534 5.84445 14.1434 5.45545C14.5324 5.06645 14.5324 4.43545 14.1434 4.04645C14.5324 3.65745 14.5324 3.02645 14.1434 2.63745Z" fill="#77B255"/>
<path d="M12.7343 6.45147C13.2844 6.45147 13.7303 6.00555 13.7303 5.45547C13.7303 4.9054 13.2844 4.45947 12.7343 4.45947C12.1843 4.45947 11.7383 4.9054 11.7383 5.45547C11.7383 6.00555 12.1843 6.45147 12.7343 6.45147Z" fill="#DD2E44"/>
<path d="M14.1434 3.84048C14.4184 3.84048 14.6414 3.61752 14.6414 3.34248C14.6414 3.06744 14.4184 2.84448 14.1434 2.84448C13.8683 2.84448 13.6454 3.06744 13.6454 3.34248C13.6454 3.61752 13.8683 3.84048 14.1434 3.84048Z" fill="#DD2E44"/>
</svg>
