<svg width="36" height="35" viewBox="0 0 36 35" fill="none" xmlns="http://www.w3.org/2000/svg">
<path d="M31.759 8.19079C35.294 6.06879 36.167 -0.129208 35.46 0.577792C36.167 -0.129208 29.803 0.577792 27.682 4.11379C27.682 2.69979 26.268 -2.95721 24.147 1.99279C22.025 6.94279 22.732 7.64979 22.732 9.06379C22.732 10.4778 25.561 10.4778 25.561 10.4778C25.561 10.4778 25.436 13.1818 26.851 13.1818C28.265 13.1818 28.848 13.7648 33.797 11.6438C38.747 9.52179 33.173 8.19079 31.759 8.19079Z" fill="#77B255"/>
<path d="M23.085 22.8518C15.47 30.4668 2.93296 35.9328 1.16496 34.1648C-0.603039 32.3968 4.86396 19.8598 12.478 12.2448C20.093 4.6298 24.008 4.6828 27.328 8.0018C30.647 11.3218 30.7 15.2368 23.085 22.8518V22.8518Z" fill="#F4900C"/>
<path d="M22.538 13.8179C21.566 12.8459 19.768 11.0329 17.846 7.71191C17.093 8.20391 16.292 8.80291 15.437 9.51991C18.24 13.1329 23.558 14.8369 22.538 13.8179ZM15.053 21.8899C14.012 20.8489 12.023 18.8399 9.94796 15.0439C9.26096 15.8759 8.59896 16.7369 7.96796 17.6139C10.775 21.2109 16.069 22.9059 15.053 21.8899ZM24.354 21.5389C20.773 19.5309 18.864 17.6289 17.852 16.6179C16.832 15.5959 18.544 20.9329 22.169 23.7319C22.48 23.4419 23.955 21.9649 24.354 21.5389ZM12.171 30.8629C13.066 30.3709 13.975 29.8379 14.886 29.2659C11.613 27.3609 9.81696 25.5829 8.85196 24.6179C7.92996 23.6949 9.23796 27.9649 12.171 30.8629Z" fill="#D67503"/>
</svg>
