<svg width="32" height="36" viewBox="0 0 32 36" fill="none" xmlns="http://www.w3.org/2000/svg">
<path d="M23.83 24.0004C23.632 24.0004 23.433 23.9414 23.258 23.8194C16.715 19.2394 11.092 11.4534 7.86101 6.38039C9.56001 16.9084 8.85801 22.8384 8.82301 23.1244C8.75501 23.6724 8.26101 24.0544 7.70801 23.9924C7.16001 23.9244 6.77101 23.4254 6.83901 22.8774C6.84801 22.7984 7.77501 14.8444 4.85301 1.20939C4.74801 0.722386 5.01901 0.231386 5.48701 0.0613856C5.95301 -0.110614 6.47801 0.0893856 6.71301 0.529386C6.79201 0.677386 14.72 15.4024 24.404 22.1814C24.857 22.4974 24.966 23.1214 24.65 23.5734C24.456 23.8524 24.146 24.0004 23.83 24.0004Z" fill="#77B255"/>
<path d="M24.378 8.81845C20.902 9.77845 19.327 11.3644 13.629 9.48545C8.90899 7.92845 6.59199 5.27845 7.28399 3.18045C7.97599 1.08245 10.464 0.0174461 15.184 1.57445C19.933 3.14145 19.307 5.04045 24.378 8.81845V8.81845Z" fill="#5C913B"/>
<path d="M23.831 36.0005C28.2493 36.0005 31.831 32.4188 31.831 28.0005C31.831 23.5822 28.2493 20.0005 23.831 20.0005C19.4127 20.0005 15.831 23.5822 15.831 28.0005C15.831 32.4188 19.4127 36.0005 23.831 36.0005Z" fill="#BE1931"/>
<path d="M8.83099 36.0005C13.2493 36.0005 16.831 32.4188 16.831 28.0005C16.831 23.5822 13.2493 20.0005 8.83099 20.0005C4.41272 20.0005 0.830994 23.5822 0.830994 28.0005C0.830994 32.4188 4.41272 36.0005 8.83099 36.0005Z" fill="#BE1931"/>
</svg>
