<svg width="36" height="34" viewBox="0 0 36 34" fill="none" xmlns="http://www.w3.org/2000/svg">
<path d="M14.5586 24.8792V30.8792C14.5586 30.8792 14.5586 33.8792 17.5586 33.8792C20.5586 33.8792 20.5586 30.8792 20.5586 30.8792V24.8792H14.5586Z" fill="#DD2E44"/>
<path d="M14.5586 30.8792L14.5596 30.9161C15.6006 30.8811 16.5756 30.6421 17.1916 29.6301C17.3626 29.3491 17.7546 29.3491 17.9266 29.6301C18.5426 30.6411 19.5176 30.8811 20.5586 30.9161V24.8792H14.5586V30.8792Z" fill="#BE1931"/>
<path d="M31.5126 19.4981C31.5126 25.7741 26.5126 25.7742 26.5126 25.7742H8.51257C8.51257 25.7742 3.51257 25.7741 3.51257 19.4981C3.51257 12.7741 8.51257 0.87915 17.5126 0.87915C26.5126 0.87915 31.5126 13.7741 31.5126 19.4981Z" fill="#D99E82"/>
<path d="M17.5586 17.8792C10.5586 17.8792 7.55859 21.4062 7.55859 24.2742C7.55859 27.3112 10.0206 29.7742 13.0586 29.7742C14.6636 29.7742 16.1006 29.1102 17.1076 27.0072C17.2926 26.6212 17.8236 26.6212 18.0086 27.0072C19.0156 29.1102 20.4536 29.7742 22.0576 29.7742C25.0956 29.7742 27.5576 27.3112 27.5576 24.2742C27.5586 21.4062 24.5586 17.8792 17.5586 17.8792Z" fill="#F4C7B5"/>
<path d="M14.5586 20.7742C13.5586 21.7742 16.5586 24.7742 17.5586 24.7742C18.5586 24.7742 21.5586 21.7742 20.5586 20.7742C19.5586 19.7742 15.5586 19.7742 14.5586 20.7742ZM12.5586 16.8792C11.4586 16.8792 10.5586 15.9792 10.5586 14.8792V12.8792C10.5586 11.7792 11.4586 10.8792 12.5586 10.8792C13.6586 10.8792 14.5586 11.7792 14.5586 12.8792V14.8792C14.5586 15.9792 13.6586 16.8792 12.5586 16.8792ZM22.5586 16.8792C21.4586 16.8792 20.5586 15.9792 20.5586 14.8792V12.8792C20.5586 11.7792 21.4586 10.8792 22.5586 10.8792C23.6586 10.8792 24.5586 11.7792 24.5586 12.8792V14.8792C24.5586 15.9792 23.6586 16.8792 22.5586 16.8792Z" fill="#292F33"/>
<path d="M14.5586 1.48721C13.4996 0.0782074 11.2396 -1.23979 2.38656 2.07921C-1.75744 3.63321 0.266563 15.6832 3.49356 16.4642C4.59956 16.4642 7.91956 16.4642 7.91956 7.61221C7.91956 7.39221 7.91756 7.18921 7.91456 6.98721C9.90856 4.17721 12.0586 2.73621 14.5586 1.48721ZM32.7306 2.07921C23.8776 -1.23979 21.6176 0.0782074 20.5586 1.48721C23.0586 2.73721 25.2086 4.17821 27.2026 6.98821C27.1996 7.18921 27.1976 7.39221 27.1976 7.61321C27.1976 16.4652 30.5166 16.4652 31.6236 16.4652C34.8506 15.6832 36.8746 3.63321 32.7306 2.07921V2.07921Z" fill="#662113"/>
<path d="M23.0586 23.8792C23.3347 23.8792 23.5586 23.6553 23.5586 23.3792C23.5586 23.103 23.3347 22.8792 23.0586 22.8792C22.7825 22.8792 22.5586 23.103 22.5586 23.3792C22.5586 23.6553 22.7825 23.8792 23.0586 23.8792Z" fill="#D99E82"/>
<path d="M11.0586 23.8792C11.3347 23.8792 11.5586 23.6553 11.5586 23.3792C11.5586 23.103 11.3347 22.8792 11.0586 22.8792C10.7825 22.8792 10.5586 23.103 10.5586 23.3792C10.5586 23.6553 10.7825 23.8792 11.0586 23.8792Z" fill="#D99E82"/>
<path d="M25.0586 25.8792C25.3347 25.8792 25.5586 25.6553 25.5586 25.3792C25.5586 25.103 25.3347 24.8792 25.0586 24.8792C24.7825 24.8792 24.5586 25.103 24.5586 25.3792C24.5586 25.6553 24.7825 25.8792 25.0586 25.8792Z" fill="#D99E82"/>
<path d="M10.0586 25.8792C10.3347 25.8792 10.5586 25.6553 10.5586 25.3792C10.5586 25.103 10.3347 24.8792 10.0586 24.8792C9.78245 24.8792 9.55859 25.103 9.55859 25.3792C9.55859 25.6553 9.78245 25.8792 10.0586 25.8792Z" fill="#D99E82"/>
<path d="M22.5586 26.8792C23.1109 26.8792 23.5586 26.4314 23.5586 25.8792C23.5586 25.3269 23.1109 24.8792 22.5586 24.8792C22.0063 24.8792 21.5586 25.3269 21.5586 25.8792C21.5586 26.4314 22.0063 26.8792 22.5586 26.8792Z" fill="#D99E82"/>
<path d="M12.5586 26.8792C13.1109 26.8792 13.5586 26.4314 13.5586 25.8792C13.5586 25.3269 13.1109 24.8792 12.5586 24.8792C12.0063 24.8792 11.5586 25.3269 11.5586 25.8792C11.5586 26.4314 12.0063 26.8792 12.5586 26.8792Z" fill="#D99E82"/>
<path d="M9.44154 5.11116C9.18254 4.43816 8.80754 3.71416 8.26554 3.17216C7.87454 2.78116 7.24254 2.78116 6.85154 3.17216C6.46054 3.56316 6.46054 4.19516 6.85154 4.58616C7.42154 5.15616 7.91754 6.52016 7.91954 6.93216C8.06454 6.52816 8.75854 5.78216 9.44154 5.11116V5.11116ZM25.6585 5.11116C25.9175 4.43916 26.2925 3.71416 26.8345 3.17216C27.2255 2.78116 27.8575 2.78116 28.2485 3.17216C28.6395 3.56316 28.6395 4.19516 28.2485 4.58616C27.6785 5.15616 27.1825 6.52016 27.1805 6.93216C27.0355 6.52816 26.3415 5.78216 25.6585 5.11116V5.11116Z" fill="#380F09"/>
</svg>
