<svg width="36" height="33" viewBox="0 0 36 33" fill="none" xmlns="http://www.w3.org/2000/svg">
<path d="M34.4523 12.5728C33.5883 5.27284 28.7233 2.12584 20.5223 2.12584C20.1313 2.12584 19.7593 2.14284 19.3833 2.15684C19.3703 2.14684 19.3613 2.13584 19.3483 2.12584C14.6543 -1.39516 4.09033 -0.22116 1.74433 3.29984C-1.51067 8.18284 0.570331 25.5998 1.74433 27.9458C2.91733 30.2958 6.43833 31.4668 7.61233 30.2958C8.78633 29.1198 7.61233 29.1198 6.43933 26.7748C5.58933 25.0738 5.97333 20.9158 6.69433 18.3038C6.72233 18.4718 6.76233 18.6258 6.79433 18.7898C7.18433 21.6608 8.78733 26.2018 8.78733 28.5338C8.78733 32.0978 10.8893 32.6408 13.4813 32.6408C16.0743 32.6408 18.1763 32.0978 18.1763 28.5338C18.1763 28.2938 18.1683 28.0708 18.1643 27.8388C18.9213 27.9028 19.6993 27.9458 20.5233 27.9458C21.0203 27.9458 21.5003 27.9298 21.9713 27.9068C21.9673 28.1158 21.9583 28.3168 21.9583 28.5338C21.9583 32.0978 24.0613 32.6408 26.6523 32.6408C29.2453 32.6408 31.3473 32.0978 31.3473 28.5338C31.3473 26.7328 32.5393 23.9088 33.3863 21.5518C33.5453 21.1978 33.6773 20.8198 33.8063 20.4348C33.9243 21.7418 33.9993 23.1408 33.9993 24.6408C33.9993 25.1938 34.4463 25.6408 34.9993 25.6408C35.5523 25.6408 35.9993 25.1938 35.9993 24.6408C35.9993 19.4878 35.2283 15.3928 34.4523 12.5728V12.5728Z" fill="#99AAB5"/>
<path d="M19.3493 2.12573C19.3493 2.12573 22.9993 7.64073 19.9993 12.6407C16.9993 17.6407 12.1613 17.6407 8.99934 17.6407C6.99934 17.6407 7.99934 19.6407 8.99934 19.6407C10.4133 19.6407 17.3943 20.8517 20.9993 13.6407C23.9993 7.64073 19.3493 2.12573 19.3493 2.12573V2.12573Z" fill="#66757F"/>
<path d="M6.49933 12.6409C7.32776 12.6409 7.99933 11.9693 7.99933 11.1409C7.99933 10.3124 7.32776 9.64087 6.49933 9.64087C5.6709 9.64087 4.99933 10.3124 4.99933 11.1409C4.99933 11.9693 5.6709 12.6409 6.49933 12.6409Z" fill="#292F33"/>
</svg>
