<svg width="36" height="35" viewBox="0 0 36 35" fill="none" xmlns="http://www.w3.org/2000/svg">
<path d="M23.0131 27.037C24.2311 26.225 25.2451 26.254 26.0861 26.979C25.6511 25.848 23.7381 23.355 23.7381 23.355L23.0131 27.037Z" fill="#EA596E"/>
<path d="M23.0591 27.1661C23.0291 27.1661 22.9991 27.1641 22.9681 27.1601C22.5671 27.1101 22.2821 26.7451 22.3311 26.3441L22.7571 22.8961C22.7801 22.7081 22.8741 22.5381 23.0211 22.4181L27.4691 18.7941L20.3611 14.9611C20.0051 14.7691 19.8731 14.3251 20.0651 13.9691C20.2581 13.6131 20.7011 13.4801 21.0571 13.6721L29.1291 18.0251C29.3431 18.1411 29.4861 18.3571 29.5101 18.6001C29.5331 18.8441 29.4331 19.0821 29.2431 19.2361L24.1731 23.3661L23.7831 26.5221C23.7391 26.8951 23.4231 27.1661 23.0591 27.1661V27.1661Z" fill="#F4ABBA"/>
<path d="M5.49011 3.01001L1.58611 6.91401C0.610107 7.89001 0.610107 10.818 0.610107 12.77C0.610107 14.722 2.56211 14.722 2.56211 12.77C2.56211 10.818 6.46611 7.89001 9.39411 6.91401C12.3221 5.93801 5.49011 3.01001 5.49011 3.01001Z" fill="#E1E8ED"/>
<path d="M1.58611 6.91406C0.610107 7.89006 0.610107 10.8181 0.610107 12.7701C0.610107 14.7221 2.56211 14.7221 2.56211 12.7701C2.56211 12.0991 3.02311 11.3141 3.74611 10.5321C5.12911 9.03706 1.58611 9.84206 1.58611 6.91406Z" fill="#292F33"/>
<path d="M16.7081 31.3999C17.2301 32.2699 17.1861 33.6829 16.9911 34.4869C17.9481 34.0299 19.4261 31.6599 19.4261 31.6599L16.7081 31.3999Z" fill="#EA596E"/>
<path d="M17.4761 34.6899C18.4041 34.0739 20.0711 34.1169 21.0561 34.5519C22.0421 34.9869 20.3751 32.0229 20.3751 32.0229L17.9401 33.5299L17.4761 34.6899V34.6899Z" fill="#EA596E"/>
<path d="M25.9871 27.1661C25.7511 27.1661 25.5181 27.0521 25.3771 26.8401L23.4251 23.9121C23.2011 23.5761 23.2921 23.1211 23.6281 22.8971C23.9651 22.6731 24.4191 22.7641 24.6431 23.1001L26.5951 26.0281C26.8191 26.3641 26.7281 26.8191 26.3921 27.0431C26.2671 27.1261 26.1261 27.1661 25.9871 27.1661ZM20.1301 32.0461H17.2021C16.7981 32.0461 16.4701 31.7181 16.4701 31.3141C16.4701 30.9101 16.7981 30.5821 17.2021 30.5821H19.3981V15.6981C19.3981 15.2941 19.7261 14.9661 20.1301 14.9661C20.5341 14.9661 20.8621 15.2941 20.8621 15.6981V31.3141C20.8621 31.7181 20.5341 32.0461 20.1301 32.0461Z" fill="#F4ABBA"/>
<path d="M21.1061 34.9739C20.7991 34.9739 20.5141 34.7809 20.4111 34.4739L19.8101 32.6699L17.7201 34.7599C17.4341 35.0459 16.9711 35.0459 16.6851 34.7599C16.3991 34.4739 16.3991 34.0109 16.6851 33.7249L19.6131 30.7969C19.7931 30.6169 20.0561 30.5449 20.2981 30.6029C20.5451 30.6609 20.7441 30.8429 20.8251 31.0829L21.8011 34.0109C21.9291 34.3949 21.7211 34.8089 21.3381 34.9369C21.2611 34.9619 21.1821 34.9739 21.1061 34.9739Z" fill="#F4ABBA"/>
<path d="M8.4181 7.89003C10.5742 7.89003 12.3221 6.14215 12.3221 3.98603C12.3221 1.82991 10.5742 0.0820312 8.4181 0.0820312C6.26198 0.0820312 4.5141 1.82991 4.5141 3.98603C4.5141 6.14215 6.26198 7.89003 8.4181 7.89003Z" fill="#EA596E"/>
<path d="M12.6891 20.203C12.1161 20.203 11.5491 20.105 11.0011 19.903C8.97609 19.155 7.78409 17.147 7.96509 14.788C8.18809 11.88 9.81809 9.93501 11.1291 8.37301C12.3041 6.97101 12.9621 6.13201 12.8251 5.17001C12.6621 4.02701 11.9771 3.49701 11.4321 3.25301C10.3641 2.77601 8.92609 2.96701 7.76609 3.74101L6.14209 1.30401C8.14909 -0.0339904 10.6341 -0.31199 12.6271 0.57901C14.3241 1.33801 15.4531 2.86001 15.7231 4.75501C16.0521 7.05801 14.6891 8.68301 13.3721 10.254C12.1711 11.687 11.0351 13.04 10.8841 15.012C10.8031 16.063 11.2261 16.864 12.0151 17.156C12.8731 17.471 14.3561 17.196 15.6951 15.364L18.0591 17.091C16.5981 19.088 14.6171 20.203 12.6891 20.203V20.203Z" fill="#EA596E"/>
<path d="M15.2501 16.6739C13.0841 13.4259 15.2501 8.8659 18.1781 6.9139C21.1061 4.9619 28.9141 3.9859 33.7941 11.7939C39.1951 20.4349 31.0311 16.2269 28.9141 15.6979C21.1061 13.7459 17.2021 19.6019 15.2501 16.6739V16.6739Z" fill="#EA596E"/>
<path d="M6.46611 4.96201C7.00514 4.96201 7.44211 4.52504 7.44211 3.98601C7.44211 3.44698 7.00514 3.01001 6.46611 3.01001C5.92708 3.01001 5.49011 3.44698 5.49011 3.98601C5.49011 4.52504 5.92708 4.96201 6.46611 4.96201Z" fill="#292F33"/>
<path d="M9.39412 5.93802C11.3461 4.96202 13.6491 4.94102 10.7211 8.84502C9.55012 10.407 16.0031 4.17402 12.6781 0.670016C12.1421 0.105016 8.27112 -0.416984 6.73512 0.496016C5.75312 1.08002 9.39412 5.93802 9.39412 5.93802V5.93802Z" fill="#EA596E"/>
<path d="M28.9141 19.6019C29.4531 19.6019 29.8901 19.1649 29.8901 18.6259C29.8901 18.0869 29.4531 17.6499 28.9141 17.6499C28.3751 17.6499 27.9381 18.0869 27.9381 18.6259C27.9381 19.1649 28.3751 19.6019 28.9141 19.6019Z" fill="#EA596E"/>
<path d="M20.1301 25.4581C20.6691 25.4581 21.1061 25.0211 21.1061 24.4821C21.1061 23.9431 20.6691 23.5061 20.1301 23.5061C19.5911 23.5061 19.1541 23.9431 19.1541 24.4821C19.1541 25.0211 19.5911 25.4581 20.1301 25.4581Z" fill="#EA596E"/>
</svg>
