<svg width="31" height="36" viewBox="0 0 31 36" fill="none" xmlns="http://www.w3.org/2000/svg">
<path d="M20.3217 35.6151H20.3197C19.5157 35.4731 18.9797 34.7071 19.1217 33.9031L19.7117 30.5591C19.7117 30.5591 20.3917 27.3941 18.6357 25.1101C19.8947 23.9391 23.6597 25.1951 23.6597 25.1951L22.0337 34.4161C21.8917 35.2201 21.1257 35.7561 20.3217 35.6151V35.6151ZM7.62966 35.5941H7.62766C6.82366 35.4521 6.28766 34.6861 6.42966 33.8821L7.74166 26.8571C7.74166 26.8571 8.24466 24.4381 8.24466 22.4181C9.38666 21.9791 10.9677 25.1751 10.9677 25.1751L9.34166 34.3961C9.19866 35.1991 8.43266 35.7351 7.62966 35.5941V35.5941ZM28.9067 25.7711C28.3697 25.7711 27.9297 25.3401 27.9217 24.8021C27.9097 24.0791 27.6177 20.4761 22.9967 20.4761C22.4517 20.4761 22.0117 20.0351 22.0117 19.4911C22.0117 18.9471 22.4527 18.5061 22.9967 18.5061C28.3597 18.5061 29.8547 22.4441 29.8927 24.7701C29.9017 25.3151 29.4677 25.7631 28.9237 25.7721L28.9067 25.7711V25.7711Z" fill="#F4900C"/>
<path d="M13.3306 17.252L9.8706 5.272L11.5576 4.252C11.9266 4.862 12.1856 5.974 12.6116 7.885C13.1806 10.443 13.9606 13.945 15.2686 15.761C15.5866 16.203 15.4866 16.819 15.0446 17.137C14.8696 17.263 13.3306 17.252 13.3306 17.252ZM5.7196 2.71V0.739C5.7196 0.331 6.0506 0 6.4586 0C6.8666 0 7.19761 0.331 7.19761 0.739V2.71H5.7196ZM8.0516 2.71V0.739C8.0516 0.331 8.3826 0 8.7906 0C9.1986 0 9.5296 0.331 9.5296 0.739V2.71H8.0516Z" fill="#754C29"/>
<path d="M28.9066 28.7271C29.9952 28.7271 30.8776 27.6239 30.8776 26.2631C30.8776 24.9022 29.9952 23.7991 28.9066 23.7991C27.8181 23.7991 26.9356 24.9022 26.9356 26.2631C26.9356 27.6239 27.8181 28.7271 28.9066 28.7271Z" fill="#754C29"/>
<path d="M27.0396 34.0941C27.0396 34.0941 26.3926 31.5791 26.0416 29.9401C25.7096 28.3911 25.0166 25.9591 24.8706 21.7151C24.8606 21.5701 24.8316 21.2031 24.7326 20.9361C24.6106 20.6061 24.1656 20.0031 23.9666 19.7331C23.1896 18.6811 21.9546 18.0421 20.4406 17.8861C19.1576 17.7541 17.8676 17.7011 16.5866 17.5471C15.9966 17.4761 15.4866 17.3911 15.1646 17.2751C13.5286 16.6861 13.2026 14.7731 12.7506 13.3101C11.9506 10.7201 11.2426 8.08506 10.7896 5.41006L10.7536 5.41906L10.7896 5.41006L10.7626 5.24506V4.84006C12.3296 4.12606 13.5526 1.95206 12.7336 1.13406C11.3176 0.426058 9.90663 1.24406 9.22063 2.12606C9.20063 2.12506 9.18163 2.12006 9.16163 2.12006H6.56363C5.90863 2.12006 5.25963 2.28006 4.69163 2.63006C4.10763 2.98906 3.70563 3.53706 3.05863 3.82006C2.27263 4.16406 1.33763 3.91306 0.641631 4.46006C-0.547369 5.39306 0.0166308 6.98506 1.49563 7.03806C1.69663 7.61506 2.24063 8.03106 2.88563 8.03106H4.99163C5.04663 8.04206 5.09963 8.05206 5.16463 8.06006C5.76863 8.13106 6.25263 8.58506 6.64163 9.27506C7.68863 11.1311 7.88563 13.5191 8.05663 15.5991C8.17563 17.0471 8.23363 18.5051 8.21463 19.9591C7.92163 21.5251 8.09463 23.3361 8.09463 23.3361C8.13863 23.7551 8.28063 24.1131 8.48863 24.4311L8.47863 24.4421C10.4686 27.2521 10.9276 30.4121 10.9276 30.4121L11.7116 34.6051C11.8536 35.4091 12.6196 35.9461 13.4246 35.8041C14.2286 35.6621 14.7656 34.8961 14.6236 34.0921L13.3616 26.9331C15.3386 27.4671 17.9706 27.8651 19.8106 27.7851C19.8106 27.7911 19.8076 27.7991 19.8086 27.8051C22.1796 27.6591 23.0686 29.5351 23.2626 30.3811C23.4566 31.2271 24.1306 34.6091 24.1306 34.6091C24.2726 35.4131 25.0396 35.9501 25.8426 35.8081C26.6446 35.6651 27.1816 34.8981 27.0396 34.0941V34.0941Z" fill="#FFCC4D"/>
<path d="M10.0796 22.1C9.09463 23.085 8.91962 24.508 9.68862 25.278C10.4586 26.048 11.8816 25.873 12.8666 24.887C13.8516 23.901 14.0266 22.479 13.2576 21.709C12.4876 20.939 11.0646 21.114 10.0796 22.1V22.1ZM11.1676 15.915C11.1676 17.548 12.4916 18.871 14.1236 18.871C15.1526 18.871 16.0566 18.345 16.5856 17.548C15.9956 17.477 15.4856 17.392 15.1636 17.276C13.5996 16.713 13.2916 15.039 12.9106 13.835C12.8536 13.656 12.8026 13.486 12.7486 13.312C11.8136 13.808 11.1676 14.781 11.1676 15.915V15.915ZM10.1816 11.481C10.1816 10.12 9.07862 9.01704 7.71762 9.01704C7.32962 9.01704 6.96762 9.11504 6.64062 9.27404C7.27562 10.4 7.65562 12.159 7.88262 13.927C9.16462 13.841 10.1816 12.785 10.1816 11.481V11.481ZM9.08862 7.40204C9.08862 8.52004 9.99462 9.42504 11.1116 9.42504C11.2936 9.42504 11.4666 9.39304 11.6346 9.34804C11.1856 7.56104 10.9256 6.22604 10.7876 5.41104C9.82662 5.56704 9.08862 6.39604 9.08862 7.40204V7.40204ZM18.0656 19.858C18.0656 21.491 19.3896 22.814 21.0216 22.814C22.6546 22.814 23.9776 21.49 23.9776 19.858C23.9776 19.815 23.9666 19.776 23.9646 19.734C23.1876 18.682 21.9526 18.043 20.4386 17.887C19.9816 17.84 19.4666 17.799 18.9396 17.759C18.4016 18.295 18.0656 19.036 18.0656 19.858ZM9.70262 2.61304C10.2076 2.13004 11.0196 1.52404 11.4806 1.75704C11.9416 1.99004 11.7386 3.03004 10.3146 3.90804C10.4276 3.46904 10.8656 2.69304 9.70262 2.61304Z" fill="#F4900C"/>
<path d="M6.8766 5.07498C7.4206 5.07498 7.8616 4.63398 7.8616 4.08998C7.8616 3.54598 7.4206 3.10498 6.8766 3.10498C6.3326 3.10498 5.8916 3.54598 5.8916 4.08998C5.8916 4.63398 6.3326 5.07498 6.8766 5.07498Z" fill="#292F33"/>
<path d="M19.1516 33.545C19.1516 33.545 18.0096 34.896 18.1666 35.326C18.3236 35.756 20.9076 35.817 21.4156 35.348C21.9236 34.879 19.4646 33.506 19.1516 33.545ZM6.52863 33.545C6.52863 33.545 5.38663 34.896 5.54363 35.326C5.69963 35.756 8.28463 35.817 8.79263 35.348C9.30063 34.879 6.84163 33.506 6.52863 33.545ZM11.0756 35.765C11.2116 36.156 13.8416 36.094 14.2806 35.304C14.7196 34.514 11.6026 33.987 11.6026 33.987C11.6026 33.987 10.8996 35.26 11.0756 35.765V35.765ZM23.4796 35.765C23.6156 36.156 26.2456 36.094 26.6846 35.304C27.1236 34.514 24.0066 33.987 24.0066 33.987C24.0066 33.987 23.3036 35.26 23.4796 35.765V35.765Z" fill="#754C29"/>
</svg>
