<svg width="34" height="33" viewBox="0 0 34 33" fill="none" xmlns="http://www.w3.org/2000/svg">
<path d="M30.8192 29.8925C27.3042 33.4075 21.6062 33.4075 18.0912 29.8925L3.94924 15.7495C0.434238 12.2345 0.434238 6.5365 3.94924 3.0215C7.46424 -0.493496 13.1622 -0.493496 16.6772 3.0215L30.8192 17.1645C34.3342 20.6785 34.3342 26.3775 30.8192 29.8925V29.8925Z" fill="#D99E82"/>
<path d="M28.7343 19.3214C32.2493 22.8364 33.3433 27.4404 31.2093 29.5744C29.0743 31.7084 24.4703 30.6134 20.9563 27.0994L6.81328 12.9574C3.29828 9.44243 2.20428 4.83743 4.33828 2.70443C6.47228 0.570427 11.0763 1.66443 14.5913 5.17943L28.7343 19.3214Z" fill="#F7BBA6"/>
<path d="M32.5663 27.3955C33.9813 28.8105 34.1773 30.9055 33.0063 32.0775C31.8343 33.2485 29.7393 33.0525 28.3243 31.6375L2.13126 5.44646C0.71726 4.03246 0.52126 1.93646 1.69226 0.764464C2.86326 -0.406536 4.96026 -0.210536 6.37426 1.20346L32.5663 27.3955Z" fill="#DD2E44"/>
<path d="M31.5263 30.1854C31.2703 30.1854 31.0143 30.0874 30.8193 29.8924C29.9033 28.9764 29.2213 28.8224 28.3573 28.6264C27.3693 28.4024 26.2483 28.1484 24.9223 26.8234C23.5963 25.4984 23.3443 24.3774 23.1203 23.3884C22.9253 22.5254 22.7703 21.8424 21.8543 20.9264C20.9393 20.0114 20.2573 19.8574 19.3943 19.6624C18.4053 19.4384 17.2843 19.1854 15.9603 17.8614C14.6373 16.5374 14.3843 15.4174 14.1613 14.4294C13.9673 13.5674 13.8133 12.8864 12.8993 11.9714C11.9853 11.0574 11.3043 10.9044 10.4423 10.7094C9.45426 10.4864 8.33426 10.2334 7.01026 8.91044C5.68826 7.58844 5.43526 6.46844 5.21226 5.48044C5.01726 4.61744 4.86426 3.93644 3.94926 3.02244C3.55826 2.63244 3.55826 1.99944 3.94926 1.60844C4.34026 1.21744 4.97226 1.21744 5.36326 1.60844C6.68726 2.93144 6.94026 4.05144 7.16326 5.04044C7.35826 5.90244 7.51126 6.58343 8.42626 7.49844C9.34026 8.41243 10.0213 8.56544 10.8833 8.76044C11.8713 8.98344 12.9913 9.23643 14.3153 10.5594C15.6393 11.8834 15.8913 13.0034 16.1143 13.9914C16.3083 14.8534 16.4623 15.5344 17.3763 16.4494C18.2923 17.3654 18.9733 17.5194 19.8363 17.7134C20.8243 17.9374 21.9453 18.1904 23.2703 19.5144C24.5953 20.8394 24.8483 21.9604 25.0723 22.9494C25.2673 23.8124 25.4223 24.4954 26.3383 25.4114C27.2543 26.3274 27.9373 26.4814 28.8003 26.6774C29.7893 26.9014 30.9103 27.1554 32.2353 28.4804C32.6263 28.8714 32.6263 29.5034 32.2353 29.8944C32.0383 30.0874 31.7823 30.1854 31.5263 30.1854V30.1854Z" fill="#FFCC4D"/>
</svg>
