<svg width="37" height="26" viewBox="0 0 37 26" fill="none" xmlns="http://www.w3.org/2000/svg">
<path d="M36.0605 7.471C36.0605 2.805 32.9265 0.938 29.0605 0.938C27.4395 0.938 25.7755 1.292 24.3845 1.965C22.5835 0.736001 20.4655 0 18.0605 0C15.6555 0 13.5375 0.736001 11.7365 1.965C10.3455 1.292 8.68149 0.938 7.06049 0.938C3.19449 0.938 0.0604858 2.805 0.0604858 7.471C0.0604858 11.315 2.18849 13.888 5.09849 14.677C5.05549 15.213 5.03049 15.75 5.03049 16.288C5.03049 22.017 9.55049 23.963 13.6115 24.614C14.7095 25.425 16.2925 25.938 18.0605 25.938C19.8285 25.938 21.4115 25.425 22.5095 24.615C26.5715 23.964 31.0905 22.018 31.0905 16.289C31.0905 15.751 31.0655 15.214 31.0225 14.678C33.9325 13.888 36.0605 11.315 36.0605 7.471V7.471Z" fill="#99AAB5"/>
<path d="M9.61449 3.79204C9.29649 3.75904 8.97749 3.73804 8.66049 3.73804C5.56749 3.73804 3.06049 5.23104 3.06049 8.96404C3.06049 11.118 3.89849 12.772 5.19849 13.788C5.67149 9.99104 7.20349 6.37204 9.61449 3.79204V3.79204ZM27.4605 3.73804C27.1435 3.73804 26.8235 3.75904 26.5055 3.79204C28.9175 6.37204 30.4485 9.99104 30.9215 13.789C32.2225 12.772 33.0605 11.119 33.0605 8.96404C33.0605 5.23104 30.5535 3.73804 27.4605 3.73804Z" fill="#66757F"/>
<path d="M21.7885 18.745C21.7885 22.09 20.0605 22.938 18.0605 22.938C16.0605 22.938 14.3335 22.09 14.3335 18.745C14.3335 15.4 16.0605 12.688 18.0605 12.688C20.0605 12.688 21.7885 15.4 21.7885 18.745V18.745Z" fill="#292F33"/>
<path d="M12.5605 15.313C13.3889 15.313 14.0605 14.6414 14.0605 13.813C14.0605 12.9846 13.3889 12.313 12.5605 12.313C11.7321 12.313 11.0605 12.9846 11.0605 13.813C11.0605 14.6414 11.7321 15.313 12.5605 15.313Z" fill="#292F33"/>
<path d="M23.5605 15.313C24.3889 15.313 25.0605 14.6414 25.0605 13.813C25.0605 12.9846 24.3889 12.313 23.5605 12.313C22.7321 12.313 22.0605 12.9846 22.0605 13.813C22.0605 14.6414 22.7321 15.313 23.5605 15.313Z" fill="#292F33"/>
</svg>
