<svg width="37" height="36" viewBox="0 0 37 36" fill="none" xmlns="http://www.w3.org/2000/svg">
<path d="M32.8534 10.958C32.8534 10.958 35.1684 10.982 36.3644 12.135C36.0284 7.164 34.2604 3.886 30.4204 2.005C27.2794 0.886 24.3544 3.458 24.3544 3.458C24.3544 3.458 25.2164 1.468 26.5444 0.712C24.3174 0.236 21.6744 0 18.5284 0C15.3924 0 12.7434 0.227 10.5224 0.701C11.8634 1.446 12.7374 3.459 12.7374 3.459C12.7374 3.459 9.7224 0.803 6.5284 2.053C2.7494 3.949 1.0094 7.223 0.686401 12.174C1.8694 10.984 4.2364 10.959 4.2364 10.959C4.2364 10.959 0.423401 13.267 0.810401 16.614C1.1974 19.561 2.2044 22.581 3.6894 25.336C3.5674 22.15 6.4454 20 6.4454 20C6.4454 20 3.9534 25.96 5.8644 28.738C7.7994 31.28 10.1774 33.379 12.8404 34.654C11.8854 33.009 12.7044 31.61 12.7374 31.709C12.7794 31.834 13.1964 34.821 14.8744 35.452C16.0524 35.808 17.2744 36 18.5284 36C19.8204 36 21.0784 35.793 22.2894 35.417C23.9034 34.726 24.3134 31.832 24.3534 31.709C24.3854 31.611 25.1964 32.996 24.2634 34.63C26.9694 33.321 29.3814 31.167 31.3274 28.557C33.0264 25.711 30.6444 20 30.6444 20C30.6444 20 33.4944 22.13 33.4014 25.288C34.9574 22.382 35.9864 19.184 36.3124 16.088C36.2774 13.027 32.8534 10.958 32.8534 10.958V10.958Z" fill="#662113"/>
<path d="M14.3874 9.49507C14.9834 11.8871 14.5474 13.9171 12.1564 14.5121C9.76438 15.1081 5.79338 14.5991 5.19838 12.2081C4.60238 9.81607 5.66738 6.81807 7.00838 6.48407C8.34938 6.15007 13.7924 7.10407 14.3874 9.49507V9.49507ZM23.4914 27.9271C23.4914 30.6671 21.2694 32.8901 18.5284 32.8901C15.7874 32.8901 13.5654 30.6671 13.5654 27.9271C13.5654 25.1861 15.7884 22.9631 18.5284 22.9631C21.2694 22.9631 23.4914 25.1851 23.4914 27.9271Z" fill="#FFCC4D"/>
<path d="M21.8374 27.9269C21.8374 29.7539 20.3564 31.2359 18.5284 31.2359C16.7004 31.2359 15.2194 29.7549 15.2194 27.9269C15.2194 26.0999 16.7004 24.6169 18.5284 24.6169C20.3564 24.6169 21.8374 26.0999 21.8374 27.9269Z" fill="#DD2E44"/>
<path d="M11.5804 8.99708C12.4514 10.3901 12.0274 12.2261 10.6344 13.0971C9.24043 13.9681 8.02643 13.8941 7.15543 12.5011C6.28443 11.1071 6.96943 8.37008 7.47943 8.05108C7.98943 7.73208 10.7094 7.60308 11.5804 8.99708V8.99708Z" fill="#E6AAAA"/>
<path d="M22.6694 9.49507C22.0734 11.8871 22.5104 13.9171 24.9014 14.5121C27.2934 15.1081 31.2644 14.5991 31.8604 12.2081C32.4564 9.81607 31.3904 6.81807 30.0494 6.48407C28.7074 6.15007 23.2634 7.10407 22.6694 9.49507V9.49507Z" fill="#FFCC4D"/>
<path d="M25.4764 8.99708C24.6054 10.3901 25.0294 12.2261 26.4214 13.0971C27.8154 13.9681 29.0294 13.8941 29.9004 12.5011C30.7714 11.1071 30.0854 8.37008 29.5764 8.05108C29.0664 7.73208 26.3474 7.60308 25.4764 8.99708V8.99708Z" fill="#E6AAAA"/>
<path d="M18.5284 7.125H18.5264C5.6954 7.126 7.6534 12.083 9.0284 18.667C10.4034 25.25 10.9124 27 10.9124 27H26.1404C26.1404 27 26.6504 25.25 28.0254 18.667C29.4004 12.083 31.3574 7.126 18.5284 7.125Z" fill="#FFCC4D"/>
<path d="M12.5284 16C12.5284 16 12.5284 14.5 14.0284 14.5C15.5284 14.5 15.5284 16 15.5284 16V17.5C15.5284 17.5 15.5284 19 14.0284 19C12.5284 19 12.5284 17.5 12.5284 17.5V16ZM21.5284 16C21.5284 16 21.5284 14.5 23.0284 14.5C24.5284 14.5 24.5284 16 24.5284 16V17.5C24.5284 17.5 24.5284 19 23.0284 19C21.5284 19 21.5284 17.5 21.5284 17.5V16Z" fill="#272B2B"/>
<path d="M20.6964 21.521C19.0984 21.521 19.3114 22.369 18.5284 23.634C17.7454 22.368 17.9574 21.521 16.3604 21.521C9.49537 21.521 9.52337 21.896 9.49537 24.349C9.43737 29.335 12.2974 30.481 14.7524 30.409C16.3494 30.361 17.7464 29.529 18.5294 28.278C19.3124 29.529 20.7084 30.361 22.3054 30.409C24.7604 30.481 27.6204 29.336 27.5624 24.349C27.5334 21.896 27.5614 21.521 20.6964 21.521Z" fill="#FFE8B6"/>
<path d="M15.1104 21.4111C13.9704 21.6441 17.3894 25.8421 18.5284 25.8421C19.6674 25.8421 23.0874 21.6441 21.9474 21.4111C20.8074 21.1791 16.2494 21.1791 15.1104 21.4111Z" fill="#272B2B"/>
<path d="M12.0284 25C12.3045 25 12.5284 24.7761 12.5284 24.5C12.5284 24.2239 12.3045 24 12.0284 24C11.7522 24 11.5284 24.2239 11.5284 24.5C11.5284 24.7761 11.7522 25 12.0284 25Z" fill="#D99E82"/>
<path d="M11.0284 27C11.3045 27 11.5284 26.7761 11.5284 26.5C11.5284 26.2239 11.3045 26 11.0284 26C10.7522 26 10.5284 26.2239 10.5284 26.5C10.5284 26.7761 10.7522 27 11.0284 27Z" fill="#D99E82"/>
<path d="M13.0284 28C13.3045 28 13.5284 27.7761 13.5284 27.5C13.5284 27.2239 13.3045 27 13.0284 27C12.7522 27 12.5284 27.2239 12.5284 27.5C12.5284 27.7761 12.7522 28 13.0284 28Z" fill="#D99E82"/>
<path d="M25.0284 25C25.3045 25 25.5284 24.7761 25.5284 24.5C25.5284 24.2239 25.3045 24 25.0284 24C24.7522 24 24.5284 24.2239 24.5284 24.5C24.5284 24.7761 24.7522 25 25.0284 25Z" fill="#D99E82"/>
<path d="M26.0284 27C26.3045 27 26.5284 26.7761 26.5284 26.5C26.5284 26.2239 26.3045 26 26.0284 26C25.7522 26 25.5284 26.2239 25.5284 26.5C25.5284 26.7761 25.7522 27 26.0284 27Z" fill="#D99E82"/>
<path d="M24.0284 28C24.3045 28 24.5284 27.7761 24.5284 27.5C24.5284 27.2239 24.3045 27 24.0284 27C23.7522 27 23.5284 27.2239 23.5284 27.5C23.5284 27.7761 23.7522 28 24.0284 28Z" fill="#D99E82"/>
</svg>
