<svg width="36" height="36" viewBox="0 0 36 36" fill="none" xmlns="http://www.w3.org/2000/svg">
<path d="M15.5201 6.41902C16.0051 4.38902 15.9041 3.28002 14.9671 2.74202C14.0311 2.20502 15.3041 0.0760217 16.9441 1.94902C18.5851 3.82202 18.3721 5.56702 17.6061 6.80202C16.8391 8.03602 15.2701 7.46202 15.5201 6.41902V6.41902ZM15.0401 9.37002C14.1241 11.247 13.3411 12.038 12.2761 11.857C11.2121 11.677 10.8411 14.129 13.2991 13.726C15.7561 13.323 16.7001 11.84 16.8941 10.4C17.0871 8.96002 15.5111 8.40602 15.0401 9.37002ZM26.3761 15.631C24.3041 14.254 20.9941 17.061 20.6771 17.911C20.3601 18.761 22.3981 21.372 21.8231 22.851C21.2461 24.328 22.9651 24.619 23.7431 23.342C24.5211 22.064 24.0471 19.73 23.8991 19.173C23.7511 18.616 26.0881 17.954 27.5701 19.136C29.0511 20.316 27.2471 16.211 26.3761 15.631V15.631ZM27.4441 14.813C25.8981 12.864 28.4191 9.33102 29.2381 8.94302C30.0591 8.55602 31.8101 9.34502 33.2351 8.64802C34.6591 7.95102 34.9801 9.50202 33.8851 10.522C32.6581 11.664 31.6441 11.857 30.7661 12.048C30.2031 12.17 30.7341 14.081 30.7571 16.018C30.7801 17.817 28.0941 15.633 27.4441 14.813Z" fill="#3E721D"/>
<path d="M15.1791 2.742C15.1791 3.142 14.8551 3.466 14.4551 3.466C14.0561 3.466 13.7311 3.142 13.7311 2.742C13.7311 2.343 14.0551 2.018 14.4551 2.018C14.8551 2.018 15.1791 2.343 15.1791 2.742ZM12.1801 11.639C12.1801 12.038 11.8561 12.363 11.4561 12.363C11.0571 12.363 10.7321 12.039 10.7321 11.639C10.7321 11.24 11.0561 10.915 11.4561 10.915C11.8561 10.915 12.1801 11.239 12.1801 11.639ZM11.8821 13.316C11.8821 13.716 11.5581 14.04 11.1581 14.04C10.7591 14.04 10.4341 13.716 10.4341 13.316C10.4341 12.917 10.7581 12.592 11.1581 12.592C11.5581 12.592 11.8821 12.916 11.8821 13.316ZM13.3291 14.04C13.3291 14.439 13.0051 14.764 12.6051 14.764C12.2061 14.764 11.8811 14.44 11.8811 14.04C11.8811 13.64 12.2051 13.316 12.6051 13.316C13.0051 13.316 13.3291 13.64 13.3291 14.04ZM21.9041 22.888C22.0321 23.266 21.8311 23.679 21.4521 23.808C21.0751 23.937 20.6631 23.733 20.5341 23.355C20.4051 22.977 20.6061 22.565 20.9841 22.436C21.3631 22.307 21.7751 22.51 21.9041 22.888V22.888ZM22.6761 24.156C22.8041 24.534 22.6031 24.946 22.2241 25.075C21.8471 25.203 21.4351 25.001 21.3061 24.623C21.1771 24.246 21.3791 23.833 21.7571 23.705C22.1361 23.575 22.5481 23.778 22.6761 24.156ZM24.3031 23.916C24.4331 24.293 24.2301 24.706 23.8511 24.835C23.4751 24.964 23.0631 24.761 22.9341 24.384C22.8051 24.006 23.0071 23.593 23.3841 23.465C23.7631 23.335 24.1751 23.538 24.3031 23.916V23.916ZM34.1061 8.164C34.1061 8.563 33.7811 8.888 33.3811 8.888C32.9811 8.888 32.6571 8.563 32.6571 8.164C32.6571 7.765 32.9811 7.439 33.3811 7.439C33.7811 7.439 34.1061 7.765 34.1061 8.164ZM35.6101 8.889C35.6101 9.288 35.2861 9.613 34.8851 9.613C34.4871 9.613 34.1621 9.288 34.1621 8.889C34.1621 8.49 34.4861 8.165 34.8851 8.165C35.2861 8.164 35.6101 8.49 35.6101 8.889ZM35.2641 10.605C35.2641 11.004 34.9401 11.329 34.5391 11.329C34.1401 11.329 33.8151 11.004 33.8151 10.605C33.8151 10.206 34.1391 9.881 34.5391 9.881C34.9401 9.881 35.2641 10.206 35.2641 10.605ZM15.3721 1.193C15.3721 1.592 15.0481 1.917 14.6481 1.917C14.2491 1.917 13.9241 1.593 13.9241 1.193C13.9241 0.793 14.2481 0.469 14.6481 0.469C15.0481 0.469 15.3721 0.793 15.3721 1.193ZM16.9431 0.724C16.9431 1.124 16.6191 1.448 16.2191 1.448C15.8201 1.448 15.4951 1.124 15.4951 0.724C15.4951 0.325 15.8191 0 16.2191 0C16.6191 0.001 16.9431 0.325 16.9431 0.724Z" fill="#3E721D"/>
<path d="M0.0681105 5.22692C0.33211 4.17392 4.72511 0.50392 8.71011 1.19292C10.7341 1.54392 11.6521 4.54692 13.8121 4.62092C25.1011 5.00992 36.0841 15.7589 32.6591 26.0119C31.1531 30.5189 27.0411 34.8099 17.1981 31.0129C15.2421 30.2589 13.2281 29.0279 9.37411 29.7859C6.52211 30.3489 6.22511 32.9449 6.57111 34.2829C6.84311 35.3309 6.41011 35.8649 5.87011 35.0419C4.64411 33.1749 4.55311 30.6949 6.51311 29.0869C10.4251 25.8759 15.7611 27.8029 19.6501 29.0279C26.1311 31.0719 29.5671 25.3769 25.9961 18.7129C22.4931 12.1729 16.1841 10.3889 11.9911 9.89692C10.8231 9.75992 8.35211 11.9449 6.62411 11.6389C3.00311 10.9959 -0.121889 5.99092 0.0681105 5.22692Z" fill="#3E721D"/>
<path d="M0.0681152 5.22692C0.332115 4.17392 4.72512 0.50392 8.71012 1.19292C10.7341 1.54392 11.6521 4.54692 13.8121 4.62092C25.1011 5.00992 36.0841 15.7589 32.6591 26.0119C31.1531 30.5189 27.0411 34.8099 17.1981 31.0129C15.2421 30.2589 13.2281 29.0279 9.37411 29.7859C6.52211 30.3489 6.22512 32.9449 6.57112 34.2829C6.70512 34.7989 6.66811 35.1889 6.53211 35.3559C5.61011 34.0749 5.17012 31.0169 7.19312 29.4919C10.7321 26.8249 15.7611 29.3609 20.4941 30.5339C30.7451 33.0749 32.6771 22.5389 28.4011 15.6589C23.2151 7.31092 6.86012 5.32492 0.0681152 5.22692Z" fill="#77B255"/>
<path d="M6.86011 3.57495C7.41239 3.57495 7.86011 3.12724 7.86011 2.57495C7.86011 2.02267 7.41239 1.57495 6.86011 1.57495C6.30782 1.57495 5.86011 2.02267 5.86011 2.57495C5.86011 3.12724 6.30782 3.57495 6.86011 3.57495Z" fill="#292F33"/>
<path d="M5.86011 10.575C6.41239 10.575 6.86011 10.1272 6.86011 9.57495C6.86011 9.02267 6.41239 8.57495 5.86011 8.57495C5.30782 8.57495 4.86011 9.02267 4.86011 9.57495C4.86011 10.1272 5.30782 10.575 5.86011 10.575Z" fill="#292F33"/>
</svg>
