<svg width="37" height="36" viewBox="0 0 37 36" fill="none" xmlns="http://www.w3.org/2000/svg">
<path d="M10.0599 12C13.0599 17 10.0599 22.692 7.05986 21.692C4.05986 20.692 3.05986 23.692 6.05986 24.692C9.05986 25.692 15.5249 24.227 19.0599 20.692C20.0599 19.692 21.0599 19.692 21.0599 19.692L10.0599 12Z" fill="#553788"/>
<path d="M26.0599 12C23.0599 17 26.0599 22.692 29.0599 21.692C32.0599 20.692 33.0599 23.692 30.0599 24.692C27.0599 25.692 20.5949 24.227 17.0599 20.692C16.0599 19.692 15.0599 19.692 15.0599 19.692L26.0599 12Z" fill="#553788"/>
<path d="M30.2479 16C27.2479 21 30.2479 26.692 33.2479 25.692C36.2479 24.692 37.2479 27.692 34.2479 28.692C31.2479 29.692 24.7829 28.227 21.2479 24.692C20.2479 23.692 19.2479 23.692 19.2479 23.692L30.2479 16V16ZM5.87187 16C8.87187 21 5.87187 26.692 2.87187 25.692C-0.128126 24.692 -1.12813 27.692 1.87187 28.692C4.87187 29.692 11.3369 28.227 14.8719 24.692C15.8719 23.692 16.8719 23.692 16.8719 23.692L5.87187 16Z" fill="#744EAA"/>
<path d="M33.2479 31.375C30.5189 32.285 26.8229 25.749 28.4359 20.797C30.0819 17.554 31.0599 13.94 31.0599 11C31.0599 3.82 25.2399 0 18.0599 0C10.8799 0 5.05987 3.82 5.05987 11C5.05987 13.94 6.03787 17.554 7.68387 20.797C9.29687 25.749 5.60087 32.285 2.87187 31.375C-0.128126 30.375 -1.12813 34.375 1.87187 35.375C4.87187 36.375 10.1819 34.748 13.8719 31.375C16.0609 29.375 18.0609 29.375 18.0609 29.375C18.0609 29.375 20.0609 29.375 22.2489 31.375C25.9389 34.748 31.2489 36.375 34.2489 35.375C37.2489 34.375 36.2479 30.375 33.2479 31.375Z" fill="#9266CC"/>
<path d="M14.0599 23C15.1644 23 16.0599 22.1046 16.0599 21C16.0599 19.8954 15.1644 19 14.0599 19C12.9553 19 12.0599 19.8954 12.0599 21C12.0599 22.1046 12.9553 23 14.0599 23Z" fill="#292F33"/>
<path d="M22.0599 23C23.1644 23 24.0599 22.1046 24.0599 21C24.0599 19.8954 23.1644 19 22.0599 19C20.9553 19 20.0599 19.8954 20.0599 21C20.0599 22.1046 20.9553 23 22.0599 23Z" fill="#292F33"/>
</svg>
