<svg width="37" height="36" viewBox="0 0 37 36" fill="none" xmlns="http://www.w3.org/2000/svg">
<path d="M3.83203 19.3323C3.83203 10.2203 11.219 2.83228 20.331 2.83228C29.444 2.83228 36.831 10.2193 36.831 19.3323C36.831 28.4453 29.444 35.8323 20.331 35.8323C11.219 35.8323 3.83203 28.4453 3.83203 19.3323Z" fill="#F4900C"/>
<path d="M12.246 7.41712C11.979 7.15012 11.449 7.22012 10.891 7.53712C7.591 4.80511 2.238 3.88512 1.996 3.84512C1.45 3.75612 0.937002 4.12212 0.846002 4.66612C0.755002 5.21012 1.122 5.72612 1.667 5.81712C1.72 5.82612 6.601 6.67112 9.488 8.97712C9.213 9.50212 9.164 9.99212 9.418 10.2451C9.808 10.6361 10.758 10.3191 11.539 9.53812C12.32 8.75812 12.636 7.80812 12.246 7.41712V7.41712Z" fill="#662113"/>
<path d="M21.832 0.832167C21.832 0.832167 18.726 5.15017 14.811 6.10517C11.832 6.83217 7.87299 6.90217 7.47799 5.98217C7.08399 5.06317 9.04999 2.04517 12.447 0.589167C15.844 -0.865833 21.832 0.832167 21.832 0.832167Z" fill="#5C913B"/>
</svg>
