<svg width="35" height="36" viewBox="0 0 35 36" fill="none" xmlns="http://www.w3.org/2000/svg">
<path d="M6.06049 12C9.37419 12 12.0605 9.31371 12.0605 6C12.0605 2.68629 9.37419 0 6.06049 0C2.74678 0 0.0604858 2.68629 0.0604858 6C0.0604858 9.31371 2.74678 12 6.06049 12Z" fill="#272B2B"/>
<path d="M28.0605 12C31.3742 12 34.0605 9.31371 34.0605 6C34.0605 2.68629 31.3742 0 28.0605 0C24.7468 0 22.0605 2.68629 22.0605 6C22.0605 9.31371 24.7468 12 28.0605 12Z" fill="#272B2B"/>
<path d="M6.06049 10C8.26962 10 10.0605 8.20914 10.0605 6C10.0605 3.79086 8.26962 2 6.06049 2C3.85135 2 2.06049 3.79086 2.06049 6C2.06049 8.20914 3.85135 10 6.06049 10Z" fill="#66757F"/>
<path d="M28.0605 10C30.2696 10 32.0605 8.20914 32.0605 6C32.0605 3.79086 30.2696 2 28.0605 2C25.8513 2 24.0605 3.79086 24.0605 6C24.0605 8.20914 25.8513 10 28.0605 10Z" fill="#66757F"/>
<path d="M34.0605 22C34.0605 29 27.6855 34 17.0605 34C6.43549 34 0.0604858 29 0.0604858 22C0.0604858 22 1.36849 0 17.0605 0C32.7525 0 34.0605 22 34.0605 22Z" fill="#EEEEEE"/>
<path d="M17.0605 36C20.3742 36 23.0605 33.3137 23.0605 30C23.0605 26.6863 20.3742 24 17.0605 24C13.7468 24 11.0605 26.6863 11.0605 30C11.0605 33.3137 13.7468 36 17.0605 36Z" fill="#CCD6DD"/>
<path d="M17.0605 34C19.2696 34 21.0605 32.2091 21.0605 30C21.0605 27.7909 19.2696 26 17.0605 26C14.8513 26 13.0605 27.7909 13.0605 30C13.0605 32.2091 14.8513 34 17.0605 34Z" fill="#DD2E44"/>
<path d="M19.7695 12.6539C24.2235 9.87792 31.0605 16.9999 26.0125 22.6699C22.5235 26.5909 19.0605 24.9999 19.0605 24.9999C19.0605 24.9999 16.4245 14.7399 19.7695 12.6539ZM14.3275 12.6649C9.87351 9.88792 3.03651 17.0099 8.08351 22.6809C11.5735 26.6009 15.0365 25.0099 15.0365 25.0099C15.0365 25.0099 17.6725 14.7499 14.3275 12.6649V12.6649Z" fill="#272B2B"/>
<path d="M10.0605 17C10.0605 17 10.0605 15 12.0605 15C14.0605 15 14.0605 17 14.0605 17V19C14.0605 19 14.0605 21 12.0605 21C10.0605 21 10.0605 19 10.0605 19V17Z" fill="#66757F"/>
<path d="M17.0605 20C17.0605 20 6.06049 23.687 6.06049 27C6.06049 30.313 8.74749 33 12.0605 33C14.1485 33 15.9855 31.933 17.0605 30.315C18.1345 31.933 19.9725 33 22.0605 33C25.3735 33 28.0605 30.313 28.0605 27C28.0605 23.687 17.0605 20 17.0605 20Z" fill="white"/>
<path d="M20.0605 17C20.0605 17 20.0605 15 22.0605 15C24.0605 15 24.0605 17 24.0605 17V19C24.0605 19 24.0605 21 22.0605 21C20.0605 21 20.0605 19 20.0605 19V17Z" fill="#66757F"/>
<path d="M12.1855 25C10.5615 26 15.4355 29 17.0605 29C18.6855 29 23.5595 26 21.9345 25C20.3095 24 13.8105 24 12.1855 25V25Z" fill="#272B2B"/>
</svg>
