<svg width="28" height="36" viewBox="0 0 28 36" fill="none" xmlns="http://www.w3.org/2000/svg">
<path d="M15.24 9.1C14.963 5.793 17.41 4.38 17.41 4.38C14.211 4.493 12.516 7.206 12.516 7.206C11.764 5.906 13.462 3.194 14.685 2.487C11.487 2.6 11.015 4.607 11.015 4.607C9.512 2.006 9.985 0 9.985 0C8.864 0.647 8.218 2.113 7.844 3.512L5.526 0.842C5.296 1.886 5.683 4.016 6.099 5.801C3.044 4.011 0.196 5.651 0.196 5.651C4.146 6.839 5.646 9.439 5.646 9.439C5.646 9.439 1.698 8.252 0 10.965C2.597 10.873 4.5 11.464 5.856 12.195C4.693 12.484 2.711 11.959 1.501 13.566C1.501 13.566 4.699 13.453 5.352 14.621C3.18 15.235 1.777 16.872 1.777 16.872C6.199 16.054 10.9 18.541 10.9 18.541L17.019 15.009C15.99 10.402 19.661 8.282 19.661 8.282C16.937 6.387 15.24 9.1 15.24 9.1V9.1Z" fill="#5C913B"/>
<path d="M26.559 22.3469C29.047 26.6559 27.777 32.0469 23.722 34.3879C19.667 36.7289 14.363 35.1339 11.876 30.8259L10.287 28.0729C7.79901 23.7629 9.07001 18.3739 13.124 16.0329C17.179 13.6919 22.483 15.2859 24.97 19.5949L26.559 22.3469Z" fill="#FFAC33"/>
<path d="M27.561 24.8311C27.352 23.9831 27.021 23.1461 26.559 22.3471L26.373 22.0241V22.0251L24.422 21.1971L25.046 19.7261L24.971 19.5951C22.946 16.0851 19.051 14.3781 15.485 15.1291L14.667 17.0551L12.783 16.2551C9.50299 18.3771 8.21599 22.5741 9.52099 26.3831L10.527 26.8101L10.126 27.7561C10.181 27.8611 10.228 27.9681 10.289 28.0711L11.878 30.8241C12.563 32.0111 13.468 32.9841 14.496 33.7331L14.725 33.1951L16.676 34.0231L16.352 34.7871C17.017 35.0641 17.709 35.2521 18.413 35.3591L18.628 34.8521L20.031 35.4471C21.175 35.3991 22.311 35.1111 23.374 34.5641L23.357 34.5571L24.185 32.6061L25.374 33.1101C25.896 32.5891 26.347 32.0061 26.708 31.3741L25.015 30.6541L25.843 28.7031L27.51 29.4101C27.701 28.7101 27.811 27.9831 27.826 27.2431L26.671 26.7531L27.499 24.8021L27.561 24.8311V24.8311ZM21.349 17.5881L23.299 18.4171L22.471 20.3671L20.52 19.5391L21.349 17.5881ZM21.643 22.3191L20.815 24.2691L18.864 23.4421L19.692 21.4911L21.643 22.3191V22.3191ZM17.446 15.9321L19.397 16.7601L18.568 18.7121L16.617 17.8841L17.446 15.9321ZM15.79 19.8341L17.741 20.6621L16.913 22.6131L14.963 21.7851L15.79 19.8341ZM11.888 18.1791L13.838 19.0071L13.01 20.9561L11.06 20.1281L11.888 18.1791ZM9.40399 24.0321L10.232 22.0801L12.183 22.9081L11.354 24.8601L9.40399 24.0321V24.0321ZM13.6 30.4171L11.649 29.5901L12.477 27.6391L14.428 28.4671L13.6 30.4171ZM13.305 25.6871L14.134 23.7361L16.085 24.5631L15.256 26.5151L13.305 25.6871ZM17.501 32.0731L15.551 31.2451L16.379 29.2951L18.329 30.1241L17.501 32.0731ZM17.207 27.3431L18.035 25.3911L19.986 26.2201L19.158 28.1721L17.207 27.3431V27.3431ZM21.404 33.7311L19.453 32.9031L20.281 30.9521L22.232 31.7801L21.404 33.7311ZM23.061 29.8271L21.111 29.0001L21.939 27.0481L23.889 27.8761L23.061 29.8271ZM24.717 25.9261L22.766 25.0981L23.594 23.1481L25.545 23.9751L24.717 25.9261Z" fill="#FFCC4D"/>
</svg>
