<svg width="37" height="22" viewBox="0 0 37 22" fill="none" xmlns="http://www.w3.org/2000/svg">
<path d="M12.7706 0C6.14463 0 0.77063 7.164 0.77063 16H6.77063V22H23.8896C24.4536 20.146 24.7706 18.123 24.7706 16C24.7706 7.164 19.3976 0 12.7706 0Z" fill="#FFE8B6"/>
<path d="M29.7706 14H34.6666C33.9266 6.11 28.8886 0 22.7706 0C16.1436 0 10.7706 7.164 10.7706 16C10.7706 18.123 11.0876 20.146 11.6506 22H29.7706V14Z" fill="#FFE8B6"/>
<path d="M36.7706 16C36.7706 7.164 31.3976 0 24.7706 0C18.1446 0 12.7706 7.164 12.7706 16C12.7706 18.123 13.0876 20.146 13.6506 22H30.7706C34.0846 22 36.7706 19.315 36.7706 16Z" fill="#FFAC33"/>
<path d="M6.77063 16H16.7706V22H6.77063V16Z" fill="#FFAC33"/>
<path d="M0.77063 16C0.77063 12.688 3.45763 10 6.77063 10C10.0836 10 12.7706 12.687 12.7706 16C12.7706 19.315 10.0836 22 6.77063 22C3.45763 22 0.77063 19.315 0.77063 16Z" fill="#FFE8B6"/>
<path d="M14.7706 0C8.14463 0 2.77063 7.164 2.77063 16C2.77063 18.21 4.56163 20 6.77063 20C8.97963 20 10.7706 18.21 10.7706 16C10.7706 9.037 14.1126 3.129 18.7706 0.931C17.5176 0.339 16.1756 0 14.7706 0Z" fill="#FFAC33"/>
<path d="M4.77063 17C5.32291 17 5.77063 16.5523 5.77063 16C5.77063 15.4477 5.32291 15 4.77063 15C4.21835 15 3.77063 15.4477 3.77063 16C3.77063 16.5523 4.21835 17 4.77063 17Z" fill="#D99E82"/>
<path d="M10.7456 16.25C10.6256 15.541 10.0136 15 9.27063 15C9.09063 15 8.92063 15.037 8.76063 15.095C8.76263 15.062 8.77063 15.032 8.77063 15C8.77063 13.896 7.87463 13 6.77063 13C5.66663 13 4.77063 13.896 4.77063 15C4.77063 15.525 4.97763 16 5.30963 16.357C4.98263 16.633 4.77063 17.039 4.77063 17.5C4.77063 18.178 5.22363 18.744 5.84063 18.93C6.00763 19.487 6.49163 19.892 7.08163 19.969C9.05963 19.813 10.6216 18.236 10.7456 16.25Z" fill="#C1694F"/>
<path d="M10.2706 14C9.44263 14 8.77063 14.672 8.77063 15.5C8.77063 16.328 9.44263 17 10.2706 17C10.4006 17 10.5246 16.979 10.6456 16.947C10.7206 16.642 10.7706 16.328 10.7706 16C10.7706 15.363 10.8076 14.739 10.8616 14.122C10.6806 14.044 10.4816 14 10.2706 14Z" fill="#D99E82"/>
<path d="M7.27063 14C8.09906 14 8.77063 13.5523 8.77063 13C8.77063 12.4477 8.09906 12 7.27063 12C6.4422 12 5.77063 12.4477 5.77063 13C5.77063 13.5523 6.4422 14 7.27063 14Z" fill="#FFCC4D"/>
<path d="M7.77063 15C8.32291 15 8.77063 14.5523 8.77063 14C8.77063 13.4477 8.32291 13 7.77063 13C7.21835 13 6.77063 13.4477 6.77063 14C6.77063 14.5523 7.21835 15 7.77063 15Z" fill="#FFCC4D"/>
<path d="M9.77063 15C10.3229 15 10.7706 14.5523 10.7706 14C10.7706 13.4477 10.3229 13 9.77063 13C9.21835 13 8.77063 13.4477 8.77063 14C8.77063 14.5523 9.21835 15 9.77063 15Z" fill="#C1694F"/>
<path d="M5.77063 16C6.32291 16 6.77063 15.5523 6.77063 15C6.77063 14.4477 6.32291 14 5.77063 14C5.21835 14 4.77063 14.4477 4.77063 15C4.77063 15.5523 5.21835 16 5.77063 16Z" fill="#D99E82"/>
<path d="M7.77063 16C8.32291 16 8.77063 15.5523 8.77063 15C8.77063 14.4477 8.32291 14 7.77063 14C7.21835 14 6.77063 14.4477 6.77063 15C6.77063 15.5523 7.21835 16 7.77063 16Z" fill="#D99E82"/>
<path d="M8.77063 14C9.32291 14 9.77063 13.5523 9.77063 13C9.77063 12.4477 9.32291 12 8.77063 12C8.21835 12 7.77063 12.4477 7.77063 13C7.77063 13.5523 8.21835 14 8.77063 14Z" fill="#FFD983"/>
<path d="M7.77063 12C8.32291 12 8.77063 11.5523 8.77063 11C8.77063 10.4477 8.32291 10 7.77063 10C7.21835 10 6.77063 10.4477 6.77063 11C6.77063 11.5523 7.21835 12 7.77063 12Z" fill="#FFE8B6"/>
<path d="M6.77063 14C7.32291 14 7.77063 13.5523 7.77063 13C7.77063 12.4477 7.32291 12 6.77063 12C6.21835 12 5.77063 12.4477 5.77063 13C5.77063 13.5523 6.21835 14 6.77063 14Z" fill="#FFE8B6"/>
<path d="M9.77063 12C10.3229 12 10.7706 11.5523 10.7706 11C10.7706 10.4477 10.3229 10 9.77063 10C9.21835 10 8.77063 10.4477 8.77063 11C8.77063 11.5523 9.21835 12 9.77063 12Z" fill="#FFD983"/>
<path d="M9.77063 14C10.3229 14 10.7706 13.5523 10.7706 13C10.7706 12.4477 10.3229 12 9.77063 12C9.21835 12 8.77063 12.4477 8.77063 13C8.77063 13.5523 9.21835 14 9.77063 14Z" fill="#FFD983"/>
<path d="M9.77063 13C10.3229 13 10.7706 12.5523 10.7706 12C10.7706 11.4477 10.3229 11 9.77063 11C9.21835 11 8.77063 11.4477 8.77063 12C8.77063 12.5523 9.21835 13 9.77063 13Z" fill="#FFD983"/>
<path d="M9.77063 13C10.3229 13 10.7706 12.5523 10.7706 12C10.7706 11.4477 10.3229 11 9.77063 11C9.21835 11 8.77063 11.4477 8.77063 12C8.77063 12.5523 9.21835 13 9.77063 13Z" fill="#FFE8B6"/>
<path d="M11.3426 5.453C11.0706 5.174 10.6916 5 10.2706 5C9.53263 5 8.92263 5.533 8.79763 6.235C8.58263 6.096 8.31963 6 8.02063 6C7.33063 6 6.77063 6.448 6.77063 7C6.77063 7.19 6.85463 7.358 6.97063 7.51C6.84763 7.656 6.77063 7.821 6.77063 8C6.21863 8 5.77063 8.448 5.77063 9C5.77063 9.202 5.84563 9.379 5.94863 9.537C5.83863 9.676 5.77063 9.832 5.77063 10C5.77063 10.552 6.44163 11 7.27063 11C7.70063 11 8.08563 10.878 8.35963 10.684C8.61363 10.879 8.92663 11 9.27063 11C9.46863 11 9.65563 10.959 9.82863 10.89C9.99163 11.492 10.5186 11.932 11.1596 11.981C11.6546 9.437 12.6096 7.146 13.8976 5.261C13.5766 5.097 13.1896 5 12.7706 5C12.2106 5 11.7056 5.174 11.3426 5.453Z" fill="#77B255"/>
<path d="M8.77063 9C9.32291 9 9.77063 8.55228 9.77063 8C9.77063 7.44772 9.32291 7 8.77063 7C8.21835 7 7.77063 7.44772 7.77063 8C7.77063 8.55228 8.21835 9 8.77063 9Z" fill="#A6D388"/>
<path d="M10.7706 6.5C10.7706 6.776 10.5466 7 10.2706 7C9.99463 7 9.77063 6.777 9.77063 6.5C9.77063 6.224 9.99463 6 10.2706 6C10.5466 6 10.7706 6.224 10.7706 6.5Z" fill="#A6D388"/>
<path d="M7.27063 10C7.54677 10 7.77063 9.77614 7.77063 9.5C7.77063 9.22386 7.54677 9 7.27063 9C6.99449 9 6.77063 9.22386 6.77063 9.5C6.77063 9.77614 6.99449 10 7.27063 10Z" fill="#A6D388"/>
<path d="M10.7706 9.5C10.7706 9.776 10.5466 10 10.2706 10C9.99463 10 9.77063 9.777 9.77063 9.5C9.77063 9.223 9.99463 9 10.2706 9C10.5466 9 10.7706 9.224 10.7706 9.5Z" fill="#A6D388"/>
<path d="M10.7706 9C11.3229 9 11.7706 8.55228 11.7706 8C11.7706 7.44772 11.3229 7 10.7706 7C10.2183 7 9.77063 7.44772 9.77063 8C9.77063 8.55228 10.2183 9 10.7706 9Z" fill="#A6D388"/>
<path d="M9.77063 6C10.3229 6 10.7706 5.55228 10.7706 5C10.7706 4.44772 10.3229 4 9.77063 4C9.21835 4 8.77063 4.44772 8.77063 5C8.77063 5.55228 9.21835 6 9.77063 6Z" fill="#DD2E44"/>
<path d="M11.7706 6C12.3229 6 12.7706 5.55228 12.7706 5C12.7706 4.44772 12.3229 4 11.7706 4C11.2183 4 10.7706 4.44772 10.7706 5C10.7706 5.55228 11.2183 6 11.7706 6Z" fill="#FFD983"/>
<path d="M12.7706 4C13.3229 4 13.7706 3.55228 13.7706 3C13.7706 2.44772 13.3229 2 12.7706 2C12.2183 2 11.7706 2.44772 11.7706 3C11.7706 3.55228 12.2183 4 12.7706 4Z" fill="#FFD983"/>
<path d="M9.77063 8C10.3229 8 10.7706 7.55228 10.7706 7C10.7706 6.44772 10.3229 6 9.77063 6C9.21835 6 8.77063 6.44772 8.77063 7C8.77063 7.55228 9.21835 8 9.77063 8Z" fill="#FFD983"/>
<path d="M15.7706 2C15.2186 2 14.7706 2.448 14.7706 3C14.7706 3.035 14.7866 3.064 14.7906 3.098C14.6286 3.038 14.4546 3 14.2706 3C13.4416 3 12.7706 3.671 12.7706 4.5C12.7706 5.061 13.0816 5.543 13.5376 5.801C14.3826 4.447 15.3936 3.288 16.5266 2.365C16.3436 2.147 16.0786 2 15.7706 2Z" fill="#A6D388"/>
<path d="M12.7706 5C13.3229 5 13.7706 4.55228 13.7706 4C13.7706 3.44772 13.3229 3 12.7706 3C12.2183 3 11.7706 3.44772 11.7706 4C11.7706 4.55228 12.2183 5 12.7706 5Z" fill="#DD2E44"/>
<path d="M15.7577 2.16024C15.8462 1.61509 15.476 1.10143 14.9309 1.01295C14.3857 0.924466 13.872 1.29467 13.7836 1.83982C13.6951 2.38497 14.0653 2.89863 14.6104 2.98711C15.1556 3.07559 15.6692 2.70539 15.7577 2.16024Z" fill="#DD2E44"/>
<path d="M17.7706 19C18.3229 19 18.7706 18.5523 18.7706 18C18.7706 17.4477 18.3229 17 17.7706 17C17.2183 17 16.7706 17.4477 16.7706 18C16.7706 18.5523 17.2183 19 17.7706 19Z" fill="#F4900C"/>
<path d="M13.7706 22C14.3229 22 14.7706 21.5523 14.7706 21C14.7706 20.4477 14.3229 20 13.7706 20C13.2183 20 12.7706 20.4477 12.7706 21C12.7706 21.5523 13.2183 22 13.7706 22Z" fill="#F4900C"/>
<path d="M19.7706 22C20.3229 22 20.7706 21.5523 20.7706 21C20.7706 20.4477 20.3229 20 19.7706 20C19.2183 20 18.7706 20.4477 18.7706 21C18.7706 21.5523 19.2183 22 19.7706 22Z" fill="#F4900C"/>
<path d="M22.7706 21C23.3229 21 23.7706 20.5523 23.7706 20C23.7706 19.4477 23.3229 19 22.7706 19C22.2183 19 21.7706 19.4477 21.7706 20C21.7706 20.5523 22.2183 21 22.7706 21Z" fill="#F4900C"/>
<path d="M26.7706 21C27.3229 21 27.7706 20.5523 27.7706 20C27.7706 19.4477 27.3229 19 26.7706 19C26.2183 19 25.7706 19.4477 25.7706 20C25.7706 20.5523 26.2183 21 26.7706 21Z" fill="#F4900C"/>
<path d="M29.7706 22C30.3229 22 30.7706 21.5523 30.7706 21C30.7706 20.4477 30.3229 20 29.7706 20C29.2183 20 28.7706 20.4477 28.7706 21C28.7706 21.5523 29.2183 22 29.7706 22Z" fill="#F4900C"/>
<path d="M31.7706 20C32.3229 20 32.7706 19.5523 32.7706 19C32.7706 18.4477 32.3229 18 31.7706 18C31.2183 18 30.7706 18.4477 30.7706 19C30.7706 19.5523 31.2183 20 31.7706 20Z" fill="#F4900C"/>
<path d="M21.7706 16C22.3229 16 22.7706 15.5523 22.7706 15C22.7706 14.4477 22.3229 14 21.7706 14C21.2183 14 20.7706 14.4477 20.7706 15C20.7706 15.5523 21.2183 16 21.7706 16Z" fill="#F4900C"/>
<path d="M15.7706 16C16.3229 16 16.7706 15.5523 16.7706 15C16.7706 14.4477 16.3229 14 15.7706 14C15.2183 14 14.7706 14.4477 14.7706 15C14.7706 15.5523 15.2183 16 15.7706 16Z" fill="#F4900C"/>
<path d="M34.7706 18C35.3229 18 35.7706 17.5523 35.7706 17C35.7706 16.4477 35.3229 16 34.7706 16C34.2183 16 33.7706 16.4477 33.7706 17C33.7706 17.5523 34.2183 18 34.7706 18Z" fill="#F4900C"/>
<path d="M17.7706 12C18.3229 12 18.7706 11.5523 18.7706 11C18.7706 10.4477 18.3229 10 17.7706 10C17.2183 10 16.7706 10.4477 16.7706 11C16.7706 11.5523 17.2183 12 17.7706 12Z" fill="#F4900C"/>
<path d="M22.7706 10C23.3229 10 23.7706 9.55228 23.7706 9C23.7706 8.44772 23.3229 8 22.7706 8C22.2183 8 21.7706 8.44772 21.7706 9C21.7706 9.55228 22.2183 10 22.7706 10Z" fill="#F4900C"/>
<path d="M20.7706 5C20.7706 5.552 20.3236 6 19.7706 6C19.2186 6 18.7706 5.552 18.7706 5C18.7706 4.448 19.2186 4 19.7706 4C20.3236 4 20.7706 4.448 20.7706 5Z" fill="#F4900C"/>
<path d="M27.7706 7C28.3229 7 28.7706 6.55228 28.7706 6C28.7706 5.44772 28.3229 5 27.7706 5C27.2183 5 26.7706 5.44772 26.7706 6C26.7706 6.55228 27.2183 7 27.7706 7Z" fill="#F4900C"/>
<path d="M24.7706 4C25.3229 4 25.7706 3.55228 25.7706 3C25.7706 2.44772 25.3229 2 24.7706 2C24.2183 2 23.7706 2.44772 23.7706 3C23.7706 3.55228 24.2183 4 24.7706 4Z" fill="#F4900C"/>
<path d="M31.7706 13C32.3229 13 32.7706 12.5523 32.7706 12C32.7706 11.4477 32.3229 11 31.7706 11C31.2183 11 30.7706 11.4477 30.7706 12C30.7706 12.5523 31.2183 13 31.7706 13Z" fill="#F4900C"/>
<path d="M26.7706 13C27.3229 13 27.7706 12.5523 27.7706 12C27.7706 11.4477 27.3229 11 26.7706 11C26.2183 11 25.7706 11.4477 25.7706 12C25.7706 12.5523 26.2183 13 26.7706 13Z" fill="#F4900C"/>
<path d="M24.7706 17C25.3229 17 25.7706 16.5523 25.7706 16C25.7706 15.4477 25.3229 15 24.7706 15C24.2183 15 23.7706 15.4477 23.7706 16C23.7706 16.5523 24.2183 17 24.7706 17Z" fill="#F4900C"/>
<path d="M29.7706 16C30.3229 16 30.7706 15.5523 30.7706 15C30.7706 14.4477 30.3229 14 29.7706 14C29.2183 14 28.7706 14.4477 28.7706 15C28.7706 15.5523 29.2183 16 29.7706 16Z" fill="#F4900C"/>
</svg>
