<svg width="37" height="36" viewBox="0 0 37 36" fill="none" xmlns="http://www.w3.org/2000/svg">
<path d="M36.6935 19.6825C34.2115 9.75148 25.6995 1.73748 16.7245 6.66048C16.7245 6.66048 12.2025 5.16448 11.5505 4.71248C10.9155 4.27248 9.91547 3.80848 10.6385 5.14848C11.0615 5.93048 11.5135 6.82048 13.0415 8.46548C8.69347 12.7865 9.97247 18.0905 8.43647 21.5785C7.13247 24.5405 5.85947 26.3115 7.12647 28.5545C8.44347 30.8845 11.8555 32.0165 14.1445 29.6145C15.3885 28.3075 14.6155 27.6775 17.2765 25.4125C19.9995 24.8695 21.6705 23.6215 21.6705 21.0375C21.6705 21.0375 22.4655 20.6555 23.4965 27.0465C23.9525 29.8645 23.3395 32.6785 23.4575 35.8295H36.6935V19.6825Z" fill="#C1CDD5"/>
<path d="M32.5994 5.89046C33.1304 7.20246 33.4474 9.60046 33.1944 11.2085C33.0444 7.28546 30.0064 4.62746 28.8184 4.01546C26.6164 2.87846 24.4464 3.03646 22.0194 3.24346C22.1304 3.41146 22.4224 4.05746 22.3394 4.79046C21.8604 3.91546 20.7354 3.37046 20.0064 3.51946C18.6464 3.79646 17.4454 4.19646 16.5314 4.67546C16.0274 4.77746 15.2824 5.08846 14.1594 5.77646C12.2484 6.94746 9.98442 10.1145 7.42242 9.28746C8.46442 11.7875 11.0534 11.1325 11.0534 11.1325C12.2604 9.18246 15.1204 7.35346 17.2214 6.68046C24.8404 4.93546 29.8354 10.1195 32.6524 16.0785C33.4204 17.7035 35.2634 23.2105 36.6934 26.3705V10.7845C35.9444 9.74646 35.4124 7.76646 32.5994 5.89046V5.89046Z" fill="#60379A"/>
<path d="M14.4824 3.49037C15.0554 4.27837 17.7184 4.28437 19.0784 7.31037C20.4374 10.3364 17.1354 9.94037 15.9384 8.54037C14.6044 6.97937 14.0074 5.67737 13.7734 4.54837C13.6494 3.95237 13.3224 1.89937 14.4824 3.49037V3.49037Z" fill="#C1CDD5"/>
<path d="M14.9024 4.79028C15.8584 5.36328 17.0664 6.30528 17.4194 7.38628C17.7704 8.46728 16.7124 8.27728 16.0704 7.34428C15.4294 6.41028 15.1304 5.36928 14.7854 5.08128C14.4394 4.79228 14.9024 4.79028 14.9024 4.79028Z" fill="#758795"/>
<path d="M15.9484 15.3395C16.4709 15.3395 16.8944 14.916 16.8944 14.3935C16.8944 13.871 16.4709 13.4475 15.9484 13.4475C15.426 13.4475 15.0024 13.871 15.0024 14.3935C15.0024 14.916 15.426 15.3395 15.9484 15.3395Z" fill="#292F33"/>
<path d="M9.32343 26.7054C9.44243 27.3634 9.14243 27.9684 8.65343 28.0564C8.16343 28.1454 7.66943 27.6844 7.54943 27.0264C7.43043 26.3674 7.73143 25.7614 8.22043 25.6724C8.71043 25.5844 9.20443 26.0454 9.32343 26.7054Z" fill="#53626C"/>
<path d="M14.5374 7.9524L14.5404 7.9504L14.5354 7.9434L14.5194 7.9294C14.5114 7.9224 14.5084 7.9104 14.5004 7.9044C14.4914 7.8974 14.4794 7.8934 14.4694 7.8864C13.3144 6.9064 1.62644 -0.666597 0.912441 0.0474027C0.183441 0.776403 11.1364 9.5704 11.8424 10.1084L11.8534 10.1144L12.3944 10.5534C12.4024 10.5604 12.4044 10.5714 12.4124 10.5774C12.4254 10.5874 12.4404 10.5924 12.4544 10.6014L12.5014 10.6394L12.4924 10.6234C13.0574 10.9844 13.9194 10.7374 14.4714 10.0314C15.0304 9.3164 15.0484 8.4064 14.5374 7.9524V7.9524Z" fill="#EE7C0E"/>
<path d="M5.37045 2.07847L5.37945 2.05347C5.07845 1.87947 4.78545 1.71247 4.50145 1.55347C4.48545 1.59147 4.47945 1.62247 4.46045 1.66347C4.34845 1.90647 4.20445 2.14747 4.03145 2.37947C3.86545 2.60347 3.68245 2.80347 3.49045 2.97447C3.47045 2.99247 3.45445 3.00047 3.43445 3.01747C3.67245 3.23747 3.92345 3.46347 4.17945 3.69347C4.41345 3.48347 4.63545 3.24447 4.83345 2.97647C5.04745 2.68947 5.22845 2.38747 5.37045 2.07847V2.07847ZM7.64545 5.02347C7.95145 4.61347 8.16645 4.20147 8.30545 3.81147C8.01345 3.63047 7.72145 3.45147 7.42945 3.27347C7.35345 3.57147 7.18245 3.97247 6.84345 4.42547C6.53345 4.84247 6.23045 5.10647 5.97945 5.27047C6.23845 5.49347 6.49945 5.71547 6.75845 5.93547C7.07245 5.69147 7.37745 5.38347 7.64545 5.02347ZM10.5634 7.14847C10.9284 6.65847 11.1724 6.16547 11.2974 5.71147L10.3914 5.12547C10.3684 5.42147 10.2194 5.93547 9.76045 6.55047C9.34845 7.10447 8.93945 7.39747 8.66045 7.52847L9.47445 8.19947C9.85545 7.94347 10.2354 7.58847 10.5634 7.14847V7.14847Z" fill="#C43512"/>
</svg>
