<svg width="37" height="36" viewBox="0 0 37 36" fill="none" xmlns="http://www.w3.org/2000/svg">
<path d="M23.3397 23.1405C23.3397 23.1405 24.7137 24.7755 26.0727 33.1875C26.2157 34.0705 26.2737 34.9625 26.2897 35.8655H36.0567V7.31345C31.6697 3.84045 25.6577 3.12445 18.3787 5.55545C18.3787 5.55545 12.9707 2.55545 12.2317 1.81645C11.5127 1.09645 10.3747 0.260454 10.9967 2.16645C11.3607 3.27845 11.7607 4.53945 13.3547 7.02845C9.91871 9.06445 8.84171 11.7085 4.79671 20.3695C1.70871 26.9855 0.136712 29.1345 0.993712 31.6625C2.12371 34.9995 6.30971 37.2575 9.83771 34.6835C11.7567 33.2835 12.0837 30.7705 16.0627 28.4605C19.7157 28.3955 23.3397 26.8565 23.3397 23.1405Z" fill="#E1E8ED"/>
<path d="M36.0567 5.87757C27.7217 0.166568 14.4107 1.33857 15.9657 6.05557C25.5667 4.19357 31.8267 7.59657 36.0567 13.2236V5.87757Z" fill="#292F33"/>
<path d="M19.7197 5.62846C16.8417 5.86146 12.4397 7.39346 10.2997 9.76546C10.2997 9.76546 10.2947 4.44846 13.9887 3.98146C20.1607 3.20246 19.7977 4.34446 19.7977 4.34446L19.7197 5.62846V5.62846Z" fill="#292F33"/>
<path d="M16.4137 0.921502C16.9717 2.0765 20.4197 2.7115 21.4697 6.9505C22.5207 11.1905 18.3357 9.9015 17.1137 7.8055C15.7527 5.4715 15.2857 3.6435 15.2467 2.1265C15.2257 1.3255 15.2857 -1.4115 16.4137 0.921502V0.921502Z" fill="#E1E8ED"/>
<path d="M16.6527 2.70338C17.7557 3.67138 19.1007 5.17538 19.3027 6.65838C19.5047 8.14138 18.1777 7.64638 17.5667 6.28638C16.9547 4.92738 16.8137 3.50738 16.4327 3.05338C16.0527 2.59938 16.6527 2.70338 16.6527 2.70338V2.70338Z" fill="#66757F"/>
<path d="M16.9967 15.3905C16.9967 16.0775 16.4397 16.6345 15.7517 16.6345C15.0647 16.6345 14.5077 16.0775 14.5077 15.3905C14.5077 14.7025 15.0647 14.1455 15.7517 14.1455C16.4397 14.1465 16.9967 14.7035 16.9967 15.3905V15.3905Z" fill="#292F33"/>
<path d="M10.4107 9.78938C10.3777 9.77238 10.3357 9.77538 10.2997 9.76538C8.75666 11.7984 7.37966 14.8674 4.80966 20.3694C3.45366 23.2724 2.38966 25.3154 1.69366 26.9074C3.32166 27.1334 4.97866 25.4654 5.63866 23.6364C6.31166 21.7704 8.85366 17.9844 10.5657 15.8584C12.2777 13.7314 12.1267 10.7144 10.4107 9.78938V9.78938Z" fill="#E1E8ED"/>
<path d="M28.2447 6.17749C28.2447 6.17749 25.9487 13.1245 25.9427 15.1245C25.9317 18.9275 23.2557 22.9255 23.2557 22.9255L24.5977 26.3475C24.5977 26.3475 27.8477 23.3075 28.5357 16.1195C29.1067 10.1465 31.1017 8.45249 31.1017 8.45249L28.2447 6.17749V6.17749ZM34.1187 9.30349C34.1187 9.30349 31.1127 12.9385 30.0567 18.8655C28.6187 26.9275 25.1997 28.6115 25.1997 28.6115L25.6817 31.0525C25.6817 31.0525 30.9627 27.9965 32.3137 21.9375C33.9317 14.6775 36.0567 13.2235 36.0567 13.2235L34.1187 9.30349ZM3.30669 23.3035C3.99469 22.5895 6.32369 27.1115 7.83669 28.1875C9.42569 29.3175 13.3057 29.1225 13.5377 30.3495C11.8697 32.0535 10.7747 34.6225 8.69769 35.3375C6.61969 36.0535 2.98769 36.0145 1.45969 32.6905C-0.0683103 29.3655 1.05669 27.9905 1.68169 26.5535C2.30669 25.1165 3.13969 23.6155 3.30669 23.3035V23.3035Z" fill="#292F33"/>
<path d="M4.27866 29.7825C4.27866 30.6635 3.74666 31.3765 3.09166 31.3765C2.43666 31.3765 1.90466 30.6635 1.90466 29.7825C1.90466 28.9005 2.43666 28.1865 3.09166 28.1865C3.74666 28.1865 4.27866 28.9005 4.27866 29.7825Z" fill="#66757F"/>
<path d="M26.0107 32.8104C26.0107 32.8104 30.6187 31.2404 32.1187 29.4274C33.6187 27.6144 36.0567 23.8654 36.0567 23.8654V30.2404C36.0567 30.2404 34.8687 31.8654 32.3687 33.1784C30.7827 34.0104 26.2767 35.4294 26.2767 35.4294L26.0107 32.8104ZM25.0667 5.9454C25.0667 5.9454 24.1197 8.8654 23.8697 11.8654C23.6197 14.8654 22.7447 16.7404 21.9317 18.0534C22.2437 13.8034 21.2437 12.1784 21.8067 9.9284C22.3697 7.6784 22.6767 5.6084 22.6767 5.6084C22.6767 5.6084 23.3067 5.2404 23.9317 5.3034C24.5567 5.3664 25.0667 5.9454 25.0667 5.9454V5.9454ZM4.80969 20.3694C4.80969 20.3694 8.74369 19.9904 10.5567 21.2404C12.3697 22.4904 15.8887 28.5634 15.8887 28.5634L14.7547 29.3164C14.7547 29.3164 13.0577 24.6774 9.99469 23.2404C6.93169 21.8034 3.99469 22.0524 3.99469 22.0524L4.80969 20.3694Z" fill="#292F33"/>
<path d="M5.66168 18.5436C5.66168 18.5436 11.1777 18.1856 12.6197 20.0526C15.3697 23.6146 16.4507 25.0626 17.0667 28.4016L18.8517 28.0946C18.0577 25.1776 16.2447 19.9906 12.9327 17.8026C9.62068 15.6146 6.68268 16.1146 6.68268 16.1146L5.66168 18.5436V18.5436ZM17.9317 12.5536C17.3067 13.2416 19.9317 15.8656 19.0567 18.0536C18.1817 20.2416 18.6817 23.3036 19.1817 24.6786C19.6817 26.0536 20.4417 27.5176 20.4417 27.5176L22.0637 26.3716C22.0637 26.3716 21.8067 24.8656 21.0567 22.6786C20.3067 20.4916 20.3687 20.4286 20.6817 18.2406C20.9947 16.0526 18.5567 11.8656 17.9317 12.5536ZM15.1017 6.69456C15.1017 6.69456 16.2437 8.74056 16.1817 9.74056C16.1197 10.7406 16.1197 12.4286 15.5567 12.8026C14.9937 13.1766 14.7447 10.8026 14.3687 9.74056C13.9927 8.67856 13.3047 7.48256 13.3047 7.48256C13.3047 7.48256 14.7737 6.05456 15.1017 6.69456V6.69456ZM11.5577 8.48456C11.5577 8.48456 13.3507 9.88256 13.2877 10.8826C13.2247 11.8826 14.4317 13.4896 13.8687 13.8646C13.3057 14.2396 11.9307 12.6146 11.5567 11.5526C11.1827 10.4906 10.2997 9.76556 10.2997 9.76556C10.2997 9.76556 11.2287 7.84456 11.5577 8.48456V8.48456ZM8.99468 11.6776C8.99468 11.6776 10.5167 12.6586 10.9327 13.4276C11.3477 14.1956 13.0427 14.8146 12.8707 15.3026C12.6977 15.7906 10.8937 15.2046 10.1827 14.5526C9.47168 13.9006 7.83768 13.9736 7.83768 13.9736L8.99468 11.6776Z" fill="#292F33"/>
</svg>
